<?xml version="1.0" encoding="UTF-8" standalone="no"?><svg xmlns="http://www.w3.org/2000/svg" xmlns:xlink="http://www.w3.org/1999/xlink" contentScriptType="application/ecmascript" contentStyleType="text/css" height="528px" preserveAspectRatio="none" style="width:308px;height:528px;" version="1.1" viewBox="0 0 308 528" width="308px" zoomAndPan="magnify"><defs><filter height="300%" id="f136kw9egkk10y" width="300%" x="-1" y="-1"><feGaussianBlur result="blurOut" stdDeviation="2.0"/><feColorMatrix in="blurOut" result="blurOut2" type="matrix" values="0 0 0 0 0 0 0 0 0 0 0 0 0 0 0 0 0 0 .4 0"/><feOffset dx="4.0" dy="4.0" in="blurOut2" result="blurOut3"/><feBlend in="SourceGraphic" in2="blurOut3" mode="normal"/></filter></defs><g><!--MD5=[3fd616f346a44cd59a91eb10b19e157c]
class User--><rect fill="#FEFECE" filter="url(#f136kw9egkk10y)" height="86.4141" id="User" style="stroke: #A80036; stroke-width: 1.5;" width="116" x="8.5" y="8"/><ellipse cx="48.25" cy="24" fill="#ADD1B2" rx="11" ry="11" style="stroke: #A80036; stroke-width: 1.0;"/><path d="M51.2188,29.6406 Q50.6406,29.9375 50,30.0859 Q49.3594,30.2344 48.6563,30.2344 Q46.1563,30.2344 44.8359,28.5859 Q43.5156,26.9375 43.5156,23.8125 Q43.5156,20.6875 44.8359,19.0313 Q46.1563,17.375 48.6563,17.375 Q49.3594,17.375 50.0078,17.5313 Q50.6563,17.6875 51.2188,17.9844 L51.2188,20.7031 Q50.5938,20.125 50,19.8516 Q49.4063,19.5781 48.7813,19.5781 Q47.4375,19.5781 46.75,20.6484 Q46.0625,21.7188 46.0625,23.8125 Q46.0625,25.9063 46.75,26.9766 Q47.4375,28.0469 48.7813,28.0469 Q49.4063,28.0469 50,27.7734 Q50.5938,27.5 51.2188,26.9219 L51.2188,29.6406 Z "/><text fill="#000000" font-family="sans-serif" font-size="12" lengthAdjust="spacingAndGlyphs" textLength="29" x="67.75" y="28.1543">User</text><line style="stroke: #A80036; stroke-width: 1.5;" x1="9.5" x2="123.5" y1="40" y2="40"/><text fill="#000000" font-family="sans-serif" font-size="11" lengthAdjust="spacingAndGlyphs" textLength="104" x="14.5" y="54.2104">Username : string</text><text fill="#000000" font-family="sans-serif" font-size="11" lengthAdjust="spacingAndGlyphs" textLength="103" x="14.5" y="67.0151">FirstName : string</text><text fill="#000000" font-family="sans-serif" font-size="11" lengthAdjust="spacingAndGlyphs" textLength="102" x="14.5" y="79.8198">LastName : string</text><line style="stroke: #A80036; stroke-width: 1.5;" x1="9.5" x2="123.5" y1="86.4141" y2="86.4141"/><!--MD5=[72136138052d025cffdce3c22fbd185f]
class Product--><rect fill="#FEFECE" filter="url(#f136kw9egkk10y)" height="73.6094" id="Product" style="stroke: #A80036; stroke-width: 1.5;" width="121" x="160" y="14"/><ellipse cx="193" cy="30" fill="#ADD1B2" rx="11" ry="11" style="stroke: #A80036; stroke-width: 1.0;"/><path d="M195.9688,35.6406 Q195.3906,35.9375 194.75,36.0859 Q194.1094,36.2344 193.4063,36.2344 Q190.9063,36.2344 189.5859,34.5859 Q188.2656,32.9375 188.2656,29.8125 Q188.2656,26.6875 189.5859,25.0313 Q190.9063,23.375 193.4063,23.375 Q194.1094,23.375 194.7578,23.5313 Q195.4063,23.6875 195.9688,23.9844 L195.9688,26.7031 Q195.3438,26.125 194.75,25.8516 Q194.1563,25.5781 193.5313,25.5781 Q192.1875,25.5781 191.5,26.6484 Q190.8125,27.7188 190.8125,29.8125 Q190.8125,31.9063 191.5,32.9766 Q192.1875,34.0469 193.5313,34.0469 Q194.1563,34.0469 194.75,33.7734 Q195.3438,33.5 195.9688,32.9219 L195.9688,35.6406 Z "/><text fill="#000000" font-family="sans-serif" font-size="12" lengthAdjust="spacingAndGlyphs" textLength="49" x="211" y="34.1543">Product</text><line style="stroke: #A80036; stroke-width: 1.5;" x1="161" x2="280" y1="46" y2="46"/><text fill="#000000" font-family="sans-serif" font-size="11" lengthAdjust="spacingAndGlyphs" textLength="78" x="166" y="60.2104">Name : string</text><text fill="#000000" font-family="sans-serif" font-size="11" lengthAdjust="spacingAndGlyphs" textLength="109" x="166" y="73.0151">Description : string</text><line style="stroke: #A80036; stroke-width: 1.5;" x1="161" x2="280" y1="79.6094" y2="79.6094"/><!--MD5=[0b83492021a2ada4b97aa2318f99f432]
class Rate--><rect fill="#FEFECE" filter="url(#f136kw9egkk10y)" height="73.6094" id="Rate" style="stroke: #A80036; stroke-width: 1.5;" width="97" x="95" y="171"/><ellipse cx="126.2" cy="187" fill="#ADD1B2" rx="11" ry="11" style="stroke: #A80036; stroke-width: 1.0;"/><path d="M129.1688,192.6406 Q128.5906,192.9375 127.95,193.0859 Q127.3094,193.2344 126.6063,193.2344 Q124.1063,193.2344 122.7859,191.5859 Q121.4656,189.9375 121.4656,186.8125 Q121.4656,183.6875 122.7859,182.0313 Q124.1063,180.375 126.6063,180.375 Q127.3094,180.375 127.9578,180.5313 Q128.6063,180.6875 129.1688,180.9844 L129.1688,183.7031 Q128.5438,183.125 127.95,182.8516 Q127.3563,182.5781 126.7313,182.5781 Q125.3875,182.5781 124.7,183.6484 Q124.0125,184.7188 124.0125,186.8125 Q124.0125,188.9063 124.7,189.9766 Q125.3875,191.0469 126.7313,191.0469 Q127.3563,191.0469 127.95,190.7734 Q128.5438,190.5 129.1688,189.9219 L129.1688,192.6406 Z "/><text fill="#000000" font-family="sans-serif" font-size="12" lengthAdjust="spacingAndGlyphs" textLength="29" x="143.8" y="191.1543">Rate</text><line style="stroke: #A80036; stroke-width: 1.5;" x1="96" x2="191" y1="203" y2="203"/><text fill="#000000" font-family="sans-serif" font-size="11" lengthAdjust="spacingAndGlyphs" textLength="75" x="101" y="217.2104">UserId : Guid</text><text fill="#000000" font-family="sans-serif" font-size="11" lengthAdjust="spacingAndGlyphs" textLength="85" x="101" y="230.0151">ProdutId : Guid</text><line style="stroke: #A80036; stroke-width: 1.5;" x1="96" x2="191" y1="236.6094" y2="236.6094"/><!--MD5=[3e4198860131f99736ff234f15c6d792]
class RateProduct--><rect fill="#FEFECE" filter="url(#f136kw9egkk10y)" height="60.8047" id="RateProduct" style="stroke: #A80036; stroke-width: 1.5;" width="110" x="16.5" y="306"/><ellipse cx="31.5" cy="322" fill="#ADD1B2" rx="11" ry="11" style="stroke: #A80036; stroke-width: 1.0;"/><path d="M34.4688,327.6406 Q33.8906,327.9375 33.25,328.0859 Q32.6094,328.2344 31.9063,328.2344 Q29.4063,328.2344 28.0859,326.5859 Q26.7656,324.9375 26.7656,321.8125 Q26.7656,318.6875 28.0859,317.0313 Q29.4063,315.375 31.9063,315.375 Q32.6094,315.375 33.2578,315.5313 Q33.9063,315.6875 34.4688,315.9844 L34.4688,318.7031 Q33.8438,318.125 33.25,317.8516 Q32.6563,317.5781 32.0313,317.5781 Q30.6875,317.5781 30,318.6484 Q29.3125,319.7188 29.3125,321.8125 Q29.3125,323.9063 30,324.9766 Q30.6875,326.0469 32.0313,326.0469 Q32.6563,326.0469 33.25,325.7734 Q33.8438,325.5 34.4688,324.9219 L34.4688,327.6406 Z "/><text fill="#000000" font-family="sans-serif" font-size="12" lengthAdjust="spacingAndGlyphs" textLength="78" x="45.5" y="326.1543">RateProduct</text><line style="stroke: #A80036; stroke-width: 1.5;" x1="17.5" x2="125.5" y1="338" y2="338"/><text fill="#000000" font-family="sans-serif" font-size="11" lengthAdjust="spacingAndGlyphs" textLength="81" x="22.5" y="352.2104">Value : double</text><line style="stroke: #A80036; stroke-width: 1.5;" x1="17.5" x2="125.5" y1="358.8047" y2="358.8047"/><!--MD5=[a7d55836053d0ad836ddefc1502e205b]
class RateCategory--><rect fill="#FEFECE" filter="url(#f136kw9egkk10y)" height="73.6094" id="RateCategory" style="stroke: #A80036; stroke-width: 1.5;" width="121" x="6" y="444"/><ellipse cx="22.8" cy="460" fill="#ADD1B2" rx="11" ry="11" style="stroke: #A80036; stroke-width: 1.0;"/><path d="M25.7688,465.6406 Q25.1906,465.9375 24.55,466.0859 Q23.9094,466.2344 23.2063,466.2344 Q20.7063,466.2344 19.3859,464.5859 Q18.0656,462.9375 18.0656,459.8125 Q18.0656,456.6875 19.3859,455.0313 Q20.7063,453.375 23.2063,453.375 Q23.9094,453.375 24.5578,453.5313 Q25.2063,453.6875 25.7688,453.9844 L25.7688,456.7031 Q25.1438,456.125 24.55,455.8516 Q23.9563,455.5781 23.3313,455.5781 Q21.9875,455.5781 21.3,456.6484 Q20.6125,457.7188 20.6125,459.8125 Q20.6125,461.9063 21.3,462.9766 Q21.9875,464.0469 23.3313,464.0469 Q23.9563,464.0469 24.55,463.7734 Q25.1438,463.5 25.7688,462.9219 L25.7688,465.6406 Z "/><text fill="#000000" font-family="sans-serif" font-size="12" lengthAdjust="spacingAndGlyphs" textLength="85" x="37.2" y="464.1543">RateCategory</text><line style="stroke: #A80036; stroke-width: 1.5;" x1="7" x2="126" y1="476" y2="476"/><text fill="#000000" font-family="sans-serif" font-size="11" lengthAdjust="spacingAndGlyphs" textLength="78" x="12" y="490.2104">Name : string</text><text fill="#000000" font-family="sans-serif" font-size="11" lengthAdjust="spacingAndGlyphs" textLength="109" x="12" y="503.0151">Description : string</text><line style="stroke: #A80036; stroke-width: 1.5;" x1="7" x2="126" y1="509.6094" y2="509.6094"/><!--MD5=[eb0e8f8ddfdc21c3fdb48447501fec67]
class Review--><rect fill="#FEFECE" filter="url(#f136kw9egkk10y)" height="60.8047" id="Review" style="stroke: #A80036; stroke-width: 1.5;" width="112" x="169.5" y="306"/><ellipse cx="201.6" cy="322" fill="#ADD1B2" rx="11" ry="11" style="stroke: #A80036; stroke-width: 1.0;"/><path d="M204.5688,327.6406 Q203.9906,327.9375 203.35,328.0859 Q202.7094,328.2344 202.0063,328.2344 Q199.5063,328.2344 198.1859,326.5859 Q196.8656,324.9375 196.8656,321.8125 Q196.8656,318.6875 198.1859,317.0313 Q199.5063,315.375 202.0063,315.375 Q202.7094,315.375 203.3578,315.5313 Q204.0063,315.6875 204.5688,315.9844 L204.5688,318.7031 Q203.9438,318.125 203.35,317.8516 Q202.7563,317.5781 202.1313,317.5781 Q200.7875,317.5781 200.1,318.6484 Q199.4125,319.7188 199.4125,321.8125 Q199.4125,323.9063 200.1,324.9766 Q200.7875,326.0469 202.1313,326.0469 Q202.7563,326.0469 203.35,325.7734 Q203.9438,325.5 204.5688,324.9219 L204.5688,327.6406 Z "/><text fill="#000000" font-family="sans-serif" font-size="12" lengthAdjust="spacingAndGlyphs" textLength="42" x="219.4" y="326.1543">Review</text><line style="stroke: #A80036; stroke-width: 1.5;" x1="170.5" x2="280.5" y1="338" y2="338"/><text fill="#000000" font-family="sans-serif" font-size="11" lengthAdjust="spacingAndGlyphs" textLength="100" x="175.5" y="352.2104">Comment : string</text><line style="stroke: #A80036; stroke-width: 1.5;" x1="170.5" x2="280.5" y1="358.8047" y2="358.8047"/><!--MD5=[2a1178cdf91c51b7ef96a75ca9ff60f4]
class ReviewPhoto--><rect fill="#FEFECE" filter="url(#f136kw9egkk10y)" height="60.8047" id="ReviewPhoto" style="stroke: #A80036; stroke-width: 1.5;" width="135" x="162" y="450.5"/><ellipse cx="187.8" cy="466.5" fill="#ADD1B2" rx="11" ry="11" style="stroke: #A80036; stroke-width: 1.0;"/><path d="M190.7688,472.1406 Q190.1906,472.4375 189.55,472.5859 Q188.9094,472.7344 188.2063,472.7344 Q185.7063,472.7344 184.3859,471.0859 Q183.0656,469.4375 183.0656,466.3125 Q183.0656,463.1875 184.3859,461.5313 Q185.7063,459.875 188.2063,459.875 Q188.9094,459.875 189.5578,460.0313 Q190.2063,460.1875 190.7688,460.4844 L190.7688,463.2031 Q190.1438,462.625 189.55,462.3516 Q188.9563,462.0781 188.3313,462.0781 Q186.9875,462.0781 186.3,463.1484 Q185.6125,464.2188 185.6125,466.3125 Q185.6125,468.4063 186.3,469.4766 Q186.9875,470.5469 188.3313,470.5469 Q188.9563,470.5469 189.55,470.2734 Q190.1438,470 190.7688,469.4219 L190.7688,472.1406 Z "/><text fill="#000000" font-family="sans-serif" font-size="12" lengthAdjust="spacingAndGlyphs" textLength="79" x="204.2" y="470.6543">ReviewPhoto</text><line style="stroke: #A80036; stroke-width: 1.5;" x1="163" x2="296" y1="482.5" y2="482.5"/><text fill="#000000" font-family="sans-serif" font-size="11" lengthAdjust="spacingAndGlyphs" textLength="123" x="168" y="496.7104">ImageContent : byte[]</text><line style="stroke: #A80036; stroke-width: 1.5;" x1="163" x2="296" y1="503.3047" y2="503.3047"/><!--MD5=[84082aed03bd826416e1b9752b7e05bc]
link Product to Rate--><path d="M196.968,98.9808 C196.968,98.9808 176.7657,140.1725 167.5771,158.9078 " fill="none" id="Product-Rate" style="stroke: #A80036; stroke-width: 1.0;"/><polygon fill="#A80036" points="161.7502,170.7885,169.3046,164.4694,163.9519,166.2994,162.122,160.9467,161.7502,170.7885" style="stroke: #A80036; stroke-width: 1.0;"/><line style="stroke: #A80036; stroke-width: 1.0;" x1="163.9519" x2="167.4747" y1="166.2994" y2="159.1167"/><polygon fill="#FFFFFF" points="202.2521,88.2068,196.0187,91.8324,196.968,98.9808,203.2014,95.3551,202.2521,88.2068" style="stroke: #A80036; stroke-width: 1.0;"/><text fill="#000000" font-family="sans-serif" font-size="13" lengthAdjust="spacingAndGlyphs" textLength="23" x="184.5" y="137.0669">has</text><text fill="#000000" font-family="sans-serif" font-size="13" lengthAdjust="spacingAndGlyphs" textLength="8" x="190.5673" y="107.7216">1</text><text fill="#000000" font-family="sans-serif" font-size="13" lengthAdjust="spacingAndGlyphs" textLength="7" x="157.3776" y="159.9378">*</text><!--MD5=[70442b5b927240529ebe222e568d038d]
reverse link Rate to RateProduct--><path d="M116.13,256.8479 C106.8949,273.33 96.8546,291.249 88.64,305.9098 " fill="none" id="Rate&lt;-RateProduct" style="stroke: #A80036; stroke-width: 1.0;"/><polygon fill="#FFFFFF" points="122.6746,245.1675,116.2522,248.4466,116.8088,255.6362,123.2313,252.3571,122.6746,245.1675" style="stroke: #A80036; stroke-width: 1.0;"/><text fill="#000000" font-family="sans-serif" font-size="13" lengthAdjust="spacingAndGlyphs" textLength="8" x="110.5629" y="264.6758">1</text><text fill="#000000" font-family="sans-serif" font-size="13" lengthAdjust="spacingAndGlyphs" textLength="7" x="84.4533" y="295.1544">*</text><!--MD5=[0776ca749fca13ee5af45f1cfd3521bc]
link RateProduct to RateCategory--><path d="M70.4396,367.1447 C69.6628,389.5957 68.6046,420.1774 67.7805,443.9929 " fill="none" id="RateProduct-RateCategory" style="stroke: #A80036; stroke-width: 1.0;"/><text fill="#000000" font-family="sans-serif" font-size="13" lengthAdjust="spacingAndGlyphs" textLength="7" x="62.5418" y="386.7536">*</text><text fill="#000000" font-family="sans-serif" font-size="13" lengthAdjust="spacingAndGlyphs" textLength="8" x="59.2791" y="432.9021">1</text><!--MD5=[2c39ece8b939867e074150a3ea8641cf]
reverse link Rate to Review--><path d="M174.3654,256.3683 C184.967,272.9817 196.5331,291.1067 205.9794,305.9098 " fill="none" id="Rate&lt;-Review" style="stroke: #A80036; stroke-width: 1.0;"/><polygon fill="#FFFFFF" points="167.2178,245.1675,167.0735,252.3772,173.6731,255.2833,173.8174,248.0736,167.2178,245.1675" style="stroke: #A80036; stroke-width: 1.0;"/><text fill="#000000" font-family="sans-serif" font-size="13" lengthAdjust="spacingAndGlyphs" textLength="8" x="162.4836" y="264.6758">1</text><text fill="#000000" font-family="sans-serif" font-size="13" lengthAdjust="spacingAndGlyphs" textLength="24" x="175.4783" y="295.1544">0..1</text><!--MD5=[d92bfa42f271697f7425990ccf420e93]
reverse link Review to ReviewPhoto--><path d="M226.7105,380.2306 C227.3378,402.8894 228.0884,430.006 228.6529,450.3994 " fill="none" id="Review&lt;-ReviewPhoto" style="stroke: #A80036; stroke-width: 1.0;"/><polygon fill="#FFFFFF" points="226.3483,367.1447,222.5159,373.2531,226.6805,379.1401,230.5129,373.0317,226.3483,367.1447" style="stroke: #A80036; stroke-width: 1.0;"/><text fill="#000000" font-family="sans-serif" font-size="13" lengthAdjust="spacingAndGlyphs" textLength="23" x="228.5" y="410.0669">has</text><text fill="#000000" font-family="sans-serif" font-size="13" lengthAdjust="spacingAndGlyphs" textLength="8" x="217.7278" y="386.7536">1</text><text fill="#000000" font-family="sans-serif" font-size="13" lengthAdjust="spacingAndGlyphs" textLength="7" x="220.7563" y="439.6419">*</text><!--MD5=[c3265fded25d85e78ef43af8bf16dd19]
link User to Rate--><path d="M87.7444,94.3165 C99.5408,118.3689 114.0623,147.9777 125.3279,170.9478 " fill="none" id="User-Rate" style="stroke: #A80036; stroke-width: 1.0;"/><text fill="#000000" font-family="sans-serif" font-size="13" lengthAdjust="spacingAndGlyphs" textLength="42" x="111.5" y="137.0669">author</text><text fill="#000000" font-family="sans-serif" font-size="13" lengthAdjust="spacingAndGlyphs" textLength="8" x="82.4927" y="114.4599">1</text><text fill="#000000" font-family="sans-serif" font-size="13" lengthAdjust="spacingAndGlyphs" textLength="7" x="114.3321" y="159.8486">*</text><!--MD5=[23f166497228c93530fd7b3eac65a8c6]
@startuml
class User{
  Username : string
  FirstName : string
  LastName : string
}

class Product{
  Name : string
  Description : string
}

class Rate{
  UserId : Guid
  ProdutId : Guid
}

class RateProduct{
  Value : double
}

class RateCategory{
  Name : string
  Description : string
}

class Review{
  Comment : string
}

class ReviewPhoto{
  ImageContent : byte[]
}

class Review

Product "1" o- -> "*" Rate : has
Rate "1" o- - "*" RateProduct
RateProduct "*" - - "1" RateCategory
Rate "1" o- - "0..1" Review
Review "1" o- - "*" ReviewPhoto : has
User "1" - - "*" Rate : author
@enduml

PlantUML version 1.2019.12(Sun Nov 03 10:24:54 UTC 2019)
(GPL source distribution)
Java Runtime: OpenJDK Runtime Environment
JVM: OpenJDK 64-Bit Server VM
Java Version: 1.8.0_232-heroku-b09
Operating System: Linux
Default Encoding: UTF-8
Language: en
Country: US
--></g></svg>