<?xml version="1.0" encoding="UTF-8" standalone="no"?><svg xmlns="http://www.w3.org/2000/svg" xmlns:xlink="http://www.w3.org/1999/xlink" contentScriptType="application/ecmascript" contentStyleType="text/css" height="179px" preserveAspectRatio="none" style="width:1594px;height:179px;" version="1.1" viewBox="0 0 1594 179" width="1594px" zoomAndPan="magnify"><defs><filter height="300%" id="f1u0b3qid7ednw" width="300%" x="-1" y="-1"><feGaussianBlur result="blurOut" stdDeviation="2.0"/><feColorMatrix in="blurOut" result="blurOut2" type="matrix" values="0 0 0 0 0 0 0 0 0 0 0 0 0 0 0 0 0 0 .4 0"/><feOffset dx="4.0" dy="4.0" in="blurOut2" result="blurOut3"/><feBlend in="SourceGraphic" in2="blurOut3" mode="normal"/></filter></defs><g><path d="M578,8 L578,48.2656 L774,48.2656 L774,18 L764,8 L578,8 " fill="#FBFB77" filter="url(#f1u0b3qid7ednw)" style="stroke: #A80036; stroke-width: 1.0;"/><path d="M764,8 L764,18 L774,18 L764,8 " fill="#FBFB77" style="stroke: #A80036; stroke-width: 1.0;"/><text fill="#000000" font-family="sans-serif" font-size="13" lengthAdjust="spacingAndGlyphs" textLength="66" x="584" y="25.0669">Constraint</text><text fill="#000000" font-family="sans-serif" font-size="13" lengthAdjust="spacingAndGlyphs" textLength="175" x="584" y="40.1997">Name should not be empty</text><path d="M1272,8 L1272,48.2656 A0,0 0 0 0 1272,48.2656 L1423,48.2656 L1427,107.7907 L1431,48.2656 L1582,48.2656 A0,0 0 0 0 1582,48.2656 L1582,18 L1572,8 L1272,8 A0,0 0 0 0 1272,8 " fill="#FBFB77" filter="url(#f1u0b3qid7ednw)" style="stroke: #A80036; stroke-width: 1.0;"/><path d="M1572,8 L1572,18 L1582,18 L1572,8 " fill="#FBFB77" style="stroke: #A80036; stroke-width: 1.0;"/><text fill="#000000" font-family="sans-serif" font-size="13" lengthAdjust="spacingAndGlyphs" textLength="66" x="1278" y="25.0669">Constraint</text><text fill="#000000" font-family="sans-serif" font-size="13" lengthAdjust="spacingAndGlyphs" textLength="289" x="1278" y="40.1997">Is used by at least 1 comment, review or rate</text><!--MD5=[44a1b4afaef76c16e6c9ec4990ad0c8d]
class Item--><rect fill="#FEFECE" filter="url(#f1u0b3qid7ednw)" height="60.8047" id="Item" style="stroke: #A80036; stroke-width: 1.5;" width="90" x="6" y="108"/><ellipse cx="34.95" cy="124" fill="#ADD1B2" rx="11" ry="11" style="stroke: #A80036; stroke-width: 1.0;"/><path d="M37.9188,129.6406 Q37.3406,129.9375 36.7,130.0859 Q36.0594,130.2344 35.3563,130.2344 Q32.8563,130.2344 31.5359,128.5859 Q30.2156,126.9375 30.2156,123.8125 Q30.2156,120.6875 31.5359,119.0313 Q32.8563,117.375 35.3563,117.375 Q36.0594,117.375 36.7078,117.5313 Q37.3563,117.6875 37.9188,117.9844 L37.9188,120.7031 Q37.2938,120.125 36.7,119.8516 Q36.1063,119.5781 35.4813,119.5781 Q34.1375,119.5781 33.45,120.6484 Q32.7625,121.7188 32.7625,123.8125 Q32.7625,125.9063 33.45,126.9766 Q34.1375,128.0469 35.4813,128.0469 Q36.1063,128.0469 36.7,127.7734 Q37.2938,127.5 37.9188,126.9219 L37.9188,129.6406 Z "/><text fill="#000000" font-family="sans-serif" font-size="12" lengthAdjust="spacingAndGlyphs" textLength="27" x="52.05" y="128.1543">Item</text><line style="stroke: #A80036; stroke-width: 1.5;" x1="7" x2="95" y1="140" y2="140"/><text fill="#000000" font-family="sans-serif" font-size="11" lengthAdjust="spacingAndGlyphs" textLength="78" x="12" y="154.2104">Name : string</text><line style="stroke: #A80036; stroke-width: 1.5;" x1="7" x2="95" y1="160.8047" y2="160.8047"/><!--MD5=[eb0e8f8ddfdc21c3fdb48447501fec67]
class Review--><rect fill="#FEFECE" filter="url(#f1u0b3qid7ednw)" height="60.8047" id="Review" style="stroke: #A80036; stroke-width: 1.5;" width="89" x="131.5" y="108"/><ellipse cx="153.25" cy="124" fill="#ADD1B2" rx="11" ry="11" style="stroke: #A80036; stroke-width: 1.0;"/><path d="M156.2188,129.6406 Q155.6406,129.9375 155,130.0859 Q154.3594,130.2344 153.6563,130.2344 Q151.1563,130.2344 149.8359,128.5859 Q148.5156,126.9375 148.5156,123.8125 Q148.5156,120.6875 149.8359,119.0313 Q151.1563,117.375 153.6563,117.375 Q154.3594,117.375 155.0078,117.5313 Q155.6563,117.6875 156.2188,117.9844 L156.2188,120.7031 Q155.5938,120.125 155,119.8516 Q154.4063,119.5781 153.7813,119.5781 Q152.4375,119.5781 151.75,120.6484 Q151.0625,121.7188 151.0625,123.8125 Q151.0625,125.9063 151.75,126.9766 Q152.4375,128.0469 153.7813,128.0469 Q154.4063,128.0469 155,127.7734 Q155.5938,127.5 156.2188,126.9219 L156.2188,129.6406 Z "/><text fill="#000000" font-family="sans-serif" font-size="12" lengthAdjust="spacingAndGlyphs" textLength="42" x="168.75" y="128.1543">Review</text><line style="stroke: #A80036; stroke-width: 1.5;" x1="132.5" x2="219.5" y1="140" y2="140"/><text fill="#000000" font-family="sans-serif" font-size="11" lengthAdjust="spacingAndGlyphs" textLength="77" x="137.5" y="154.2104">name : string</text><line style="stroke: #A80036; stroke-width: 1.5;" x1="132.5" x2="219.5" y1="160.8047" y2="160.8047"/><!--MD5=[042fa140da40c49659127f611bcff931]
class Comment--><rect fill="#FEFECE" filter="url(#f1u0b3qid7ednw)" height="60.8047" id="Comment" style="stroke: #A80036; stroke-width: 1.5;" width="91" x="255.5" y="108"/><ellipse cx="270.5" cy="124" fill="#ADD1B2" rx="11" ry="11" style="stroke: #A80036; stroke-width: 1.0;"/><path d="M273.4688,129.6406 Q272.8906,129.9375 272.25,130.0859 Q271.6094,130.2344 270.9063,130.2344 Q268.4063,130.2344 267.0859,128.5859 Q265.7656,126.9375 265.7656,123.8125 Q265.7656,120.6875 267.0859,119.0313 Q268.4063,117.375 270.9063,117.375 Q271.6094,117.375 272.2578,117.5313 Q272.9063,117.6875 273.4688,117.9844 L273.4688,120.7031 Q272.8438,120.125 272.25,119.8516 Q271.6563,119.5781 271.0313,119.5781 Q269.6875,119.5781 269,120.6484 Q268.3125,121.7188 268.3125,123.8125 Q268.3125,125.9063 269,126.9766 Q269.6875,128.0469 271.0313,128.0469 Q271.6563,128.0469 272.25,127.7734 Q272.8438,127.5 273.4688,126.9219 L273.4688,129.6406 Z "/><text fill="#000000" font-family="sans-serif" font-size="12" lengthAdjust="spacingAndGlyphs" textLength="59" x="284.5" y="128.1543">Comment</text><line style="stroke: #A80036; stroke-width: 1.5;" x1="256.5" x2="345.5" y1="140" y2="140"/><text fill="#000000" font-family="sans-serif" font-size="11" lengthAdjust="spacingAndGlyphs" textLength="77" x="261.5" y="154.2104">name : string</text><line style="stroke: #A80036; stroke-width: 1.5;" x1="256.5" x2="345.5" y1="160.8047" y2="160.8047"/><!--MD5=[3fd616f346a44cd59a91eb10b19e157c]
class User--><rect fill="#FEFECE" filter="url(#f1u0b3qid7ednw)" height="60.8047" id="User" style="stroke: #A80036; stroke-width: 1.5;" width="89" x="381.5" y="108"/><ellipse cx="409.1" cy="124" fill="#ADD1B2" rx="11" ry="11" style="stroke: #A80036; stroke-width: 1.0;"/><path d="M412.0688,129.6406 Q411.4906,129.9375 410.85,130.0859 Q410.2094,130.2344 409.5063,130.2344 Q407.0063,130.2344 405.6859,128.5859 Q404.3656,126.9375 404.3656,123.8125 Q404.3656,120.6875 405.6859,119.0313 Q407.0063,117.375 409.5063,117.375 Q410.2094,117.375 410.8578,117.5313 Q411.5063,117.6875 412.0688,117.9844 L412.0688,120.7031 Q411.4438,120.125 410.85,119.8516 Q410.2563,119.5781 409.6313,119.5781 Q408.2875,119.5781 407.6,120.6484 Q406.9125,121.7188 406.9125,123.8125 Q406.9125,125.9063 407.6,126.9766 Q408.2875,128.0469 409.6313,128.0469 Q410.2563,128.0469 410.85,127.7734 Q411.4438,127.5 412.0688,126.9219 L412.0688,129.6406 Z "/><text fill="#000000" font-family="sans-serif" font-size="12" lengthAdjust="spacingAndGlyphs" textLength="29" x="425.9" y="128.1543">User</text><line style="stroke: #A80036; stroke-width: 1.5;" x1="382.5" x2="469.5" y1="140" y2="140"/><text fill="#000000" font-family="sans-serif" font-size="11" lengthAdjust="spacingAndGlyphs" textLength="77" x="387.5" y="154.2104">name : string</text><line style="stroke: #A80036; stroke-width: 1.5;" x1="382.5" x2="469.5" y1="160.8047" y2="160.8047"/><!--MD5=[eff099f41b4ab245f31ecac80b8c4343]
class UserType--><rect fill="#FEFECE" filter="url(#f1u0b3qid7ednw)" height="60.8047" id="UserType" style="stroke: #A80036; stroke-width: 1.5;" width="90" x="506" y="108"/><ellipse cx="521" cy="124" fill="#ADD1B2" rx="11" ry="11" style="stroke: #A80036; stroke-width: 1.0;"/><path d="M523.9688,129.6406 Q523.3906,129.9375 522.75,130.0859 Q522.1094,130.2344 521.4063,130.2344 Q518.9063,130.2344 517.5859,128.5859 Q516.2656,126.9375 516.2656,123.8125 Q516.2656,120.6875 517.5859,119.0313 Q518.9063,117.375 521.4063,117.375 Q522.1094,117.375 522.7578,117.5313 Q523.4063,117.6875 523.9688,117.9844 L523.9688,120.7031 Q523.3438,120.125 522.75,119.8516 Q522.1563,119.5781 521.5313,119.5781 Q520.1875,119.5781 519.5,120.6484 Q518.8125,121.7188 518.8125,123.8125 Q518.8125,125.9063 519.5,126.9766 Q520.1875,128.0469 521.5313,128.0469 Q522.1563,128.0469 522.75,127.7734 Q523.3438,127.5 523.9688,126.9219 L523.9688,129.6406 Z "/><text fill="#000000" font-family="sans-serif" font-size="12" lengthAdjust="spacingAndGlyphs" textLength="58" x="535" y="128.1543">UserType</text><line style="stroke: #A80036; stroke-width: 1.5;" x1="507" x2="595" y1="140" y2="140"/><text fill="#000000" font-family="sans-serif" font-size="11" lengthAdjust="spacingAndGlyphs" textLength="77" x="512" y="154.2104">name : string</text><line style="stroke: #A80036; stroke-width: 1.5;" x1="507" x2="595" y1="160.8047" y2="160.8047"/><!--MD5=[787494ff879e99315e413996e631a796]
class Attribute--><rect fill="#FEFECE" filter="url(#f1u0b3qid7ednw)" height="60.8047" id="Attribute" style="stroke: #A80036; stroke-width: 1.5;" width="89" x="631.5" y="108"/><ellipse cx="647.4" cy="124" fill="#ADD1B2" rx="11" ry="11" style="stroke: #A80036; stroke-width: 1.0;"/><path d="M650.3688,129.6406 Q649.7906,129.9375 649.15,130.0859 Q648.5094,130.2344 647.8063,130.2344 Q645.3063,130.2344 643.9859,128.5859 Q642.6656,126.9375 642.6656,123.8125 Q642.6656,120.6875 643.9859,119.0313 Q645.3063,117.375 647.8063,117.375 Q648.5094,117.375 649.1578,117.5313 Q649.8063,117.6875 650.3688,117.9844 L650.3688,120.7031 Q649.7438,120.125 649.15,119.8516 Q648.5563,119.5781 647.9313,119.5781 Q646.5875,119.5781 645.9,120.6484 Q645.2125,121.7188 645.2125,123.8125 Q645.2125,125.9063 645.9,126.9766 Q646.5875,128.0469 647.9313,128.0469 Q648.5563,128.0469 649.15,127.7734 Q649.7438,127.5 650.3688,126.9219 L650.3688,129.6406 Z "/><text fill="#000000" font-family="sans-serif" font-size="12" lengthAdjust="spacingAndGlyphs" textLength="55" x="661.6" y="128.1543">Attribute</text><line style="stroke: #A80036; stroke-width: 1.5;" x1="632.5" x2="719.5" y1="140" y2="140"/><text fill="#000000" font-family="sans-serif" font-size="11" lengthAdjust="spacingAndGlyphs" textLength="77" x="637.5" y="154.2104">name : string</text><line style="stroke: #A80036; stroke-width: 1.5;" x1="632.5" x2="719.5" y1="160.8047" y2="160.8047"/><!--MD5=[0b83492021a2ada4b97aa2318f99f432]
class Rate--><rect fill="#FEFECE" filter="url(#f1u0b3qid7ednw)" height="60.8047" id="Rate" style="stroke: #A80036; stroke-width: 1.5;" width="89" x="755.5" y="108"/><ellipse cx="783.1" cy="124" fill="#ADD1B2" rx="11" ry="11" style="stroke: #A80036; stroke-width: 1.0;"/><path d="M786.0688,129.6406 Q785.4906,129.9375 784.85,130.0859 Q784.2094,130.2344 783.5063,130.2344 Q781.0063,130.2344 779.6859,128.5859 Q778.3656,126.9375 778.3656,123.8125 Q778.3656,120.6875 779.6859,119.0313 Q781.0063,117.375 783.5063,117.375 Q784.2094,117.375 784.8578,117.5313 Q785.5063,117.6875 786.0688,117.9844 L786.0688,120.7031 Q785.4438,120.125 784.85,119.8516 Q784.2563,119.5781 783.6313,119.5781 Q782.2875,119.5781 781.6,120.6484 Q780.9125,121.7188 780.9125,123.8125 Q780.9125,125.9063 781.6,126.9766 Q782.2875,128.0469 783.6313,128.0469 Q784.2563,128.0469 784.85,127.7734 Q785.4438,127.5 786.0688,126.9219 L786.0688,129.6406 Z "/><text fill="#000000" font-family="sans-serif" font-size="12" lengthAdjust="spacingAndGlyphs" textLength="29" x="799.9" y="128.1543">Rate</text><line style="stroke: #A80036; stroke-width: 1.5;" x1="756.5" x2="843.5" y1="140" y2="140"/><text fill="#000000" font-family="sans-serif" font-size="11" lengthAdjust="spacingAndGlyphs" textLength="77" x="761.5" y="154.2104">name : string</text><line style="stroke: #A80036; stroke-width: 1.5;" x1="756.5" x2="843.5" y1="160.8047" y2="160.8047"/><!--MD5=[ef1ec319197d4459a8bfc4daff0eaeb5]
class ApprovalProcess--><rect fill="#FEFECE" filter="url(#f1u0b3qid7ednw)" height="60.8047" id="ApprovalProcess" style="stroke: #A80036; stroke-width: 1.5;" width="136" x="1359" y="108"/><ellipse cx="1374" cy="124" fill="#ADD1B2" rx="11" ry="11" style="stroke: #A80036; stroke-width: 1.0;"/><path d="M1376.9688,129.6406 Q1376.3906,129.9375 1375.75,130.0859 Q1375.1094,130.2344 1374.4063,130.2344 Q1371.9063,130.2344 1370.5859,128.5859 Q1369.2656,126.9375 1369.2656,123.8125 Q1369.2656,120.6875 1370.5859,119.0313 Q1371.9063,117.375 1374.4063,117.375 Q1375.1094,117.375 1375.7578,117.5313 Q1376.4063,117.6875 1376.9688,117.9844 L1376.9688,120.7031 Q1376.3438,120.125 1375.75,119.8516 Q1375.1563,119.5781 1374.5313,119.5781 Q1373.1875,119.5781 1372.5,120.6484 Q1371.8125,121.7188 1371.8125,123.8125 Q1371.8125,125.9063 1372.5,126.9766 Q1373.1875,128.0469 1374.5313,128.0469 Q1375.1563,128.0469 1375.75,127.7734 Q1376.3438,127.5 1376.9688,126.9219 L1376.9688,129.6406 Z "/><text fill="#000000" font-family="sans-serif" font-size="12" lengthAdjust="spacingAndGlyphs" textLength="104" x="1388" y="128.1543">ApprovalProcess</text><line style="stroke: #A80036; stroke-width: 1.5;" x1="1360" x2="1494" y1="140" y2="140"/><text fill="#000000" font-family="sans-serif" font-size="11" lengthAdjust="spacingAndGlyphs" textLength="77" x="1365" y="154.2104">name : string</text><line style="stroke: #A80036; stroke-width: 1.5;" x1="1360" x2="1494" y1="160.8047" y2="160.8047"/><!--MD5=[c872693b97029049fb0946a052447e90]
class ApprovalStart--><rect fill="#FEFECE" filter="url(#f1u0b3qid7ednw)" height="60.8047" id="ApprovalStart" style="stroke: #A80036; stroke-width: 1.5;" width="117" x="879.5" y="108"/><ellipse cx="894.5" cy="124" fill="#ADD1B2" rx="11" ry="11" style="stroke: #A80036; stroke-width: 1.0;"/><path d="M897.4688,129.6406 Q896.8906,129.9375 896.25,130.0859 Q895.6094,130.2344 894.9063,130.2344 Q892.4063,130.2344 891.0859,128.5859 Q889.7656,126.9375 889.7656,123.8125 Q889.7656,120.6875 891.0859,119.0313 Q892.4063,117.375 894.9063,117.375 Q895.6094,117.375 896.2578,117.5313 Q896.9063,117.6875 897.4688,117.9844 L897.4688,120.7031 Q896.8438,120.125 896.25,119.8516 Q895.6563,119.5781 895.0313,119.5781 Q893.6875,119.5781 893,120.6484 Q892.3125,121.7188 892.3125,123.8125 Q892.3125,125.9063 893,126.9766 Q893.6875,128.0469 895.0313,128.0469 Q895.6563,128.0469 896.25,127.7734 Q896.8438,127.5 897.4688,126.9219 L897.4688,129.6406 Z "/><text fill="#000000" font-family="sans-serif" font-size="12" lengthAdjust="spacingAndGlyphs" textLength="85" x="908.5" y="128.1543">ApprovalStart</text><line style="stroke: #A80036; stroke-width: 1.5;" x1="880.5" x2="995.5" y1="140" y2="140"/><text fill="#000000" font-family="sans-serif" font-size="11" lengthAdjust="spacingAndGlyphs" textLength="77" x="885.5" y="154.2104">name : string</text><line style="stroke: #A80036; stroke-width: 1.5;" x1="880.5" x2="995.5" y1="160.8047" y2="160.8047"/><!--MD5=[cf10128234ff8da099eb4295602d2d77]
class ApprovalStep--><rect fill="#FEFECE" filter="url(#f1u0b3qid7ednw)" height="60.8047" id="ApprovalStep" style="stroke: #A80036; stroke-width: 1.5;" width="115" x="1031.5" y="108"/><ellipse cx="1046.5" cy="124" fill="#ADD1B2" rx="11" ry="11" style="stroke: #A80036; stroke-width: 1.0;"/><path d="M1049.4688,129.6406 Q1048.8906,129.9375 1048.25,130.0859 Q1047.6094,130.2344 1046.9063,130.2344 Q1044.4063,130.2344 1043.0859,128.5859 Q1041.7656,126.9375 1041.7656,123.8125 Q1041.7656,120.6875 1043.0859,119.0313 Q1044.4063,117.375 1046.9063,117.375 Q1047.6094,117.375 1048.2578,117.5313 Q1048.9063,117.6875 1049.4688,117.9844 L1049.4688,120.7031 Q1048.8438,120.125 1048.25,119.8516 Q1047.6563,119.5781 1047.0313,119.5781 Q1045.6875,119.5781 1045,120.6484 Q1044.3125,121.7188 1044.3125,123.8125 Q1044.3125,125.9063 1045,126.9766 Q1045.6875,128.0469 1047.0313,128.0469 Q1047.6563,128.0469 1048.25,127.7734 Q1048.8438,127.5 1049.4688,126.9219 L1049.4688,129.6406 Z "/><text fill="#000000" font-family="sans-serif" font-size="12" lengthAdjust="spacingAndGlyphs" textLength="83" x="1060.5" y="128.1543">ApprovalStep</text><line style="stroke: #A80036; stroke-width: 1.5;" x1="1032.5" x2="1145.5" y1="140" y2="140"/><text fill="#000000" font-family="sans-serif" font-size="11" lengthAdjust="spacingAndGlyphs" textLength="77" x="1037.5" y="154.2104">name : string</text><line style="stroke: #A80036; stroke-width: 1.5;" x1="1032.5" x2="1145.5" y1="160.8047" y2="160.8047"/><!--MD5=[f02c3e73c64984d3e583ffb6a56dd9dd]
class ApprovalOutcome--><rect fill="#FEFECE" filter="url(#f1u0b3qid7ednw)" height="60.8047" id="ApprovalOutcome" style="stroke: #A80036; stroke-width: 1.5;" width="142" x="1182" y="108"/><ellipse cx="1197" cy="124" fill="#ADD1B2" rx="11" ry="11" style="stroke: #A80036; stroke-width: 1.0;"/><path d="M1199.9688,129.6406 Q1199.3906,129.9375 1198.75,130.0859 Q1198.1094,130.2344 1197.4063,130.2344 Q1194.9063,130.2344 1193.5859,128.5859 Q1192.2656,126.9375 1192.2656,123.8125 Q1192.2656,120.6875 1193.5859,119.0313 Q1194.9063,117.375 1197.4063,117.375 Q1198.1094,117.375 1198.7578,117.5313 Q1199.4063,117.6875 1199.9688,117.9844 L1199.9688,120.7031 Q1199.3438,120.125 1198.75,119.8516 Q1198.1563,119.5781 1197.5313,119.5781 Q1196.1875,119.5781 1195.5,120.6484 Q1194.8125,121.7188 1194.8125,123.8125 Q1194.8125,125.9063 1195.5,126.9766 Q1196.1875,128.0469 1197.5313,128.0469 Q1198.1563,128.0469 1198.75,127.7734 Q1199.3438,127.5 1199.9688,126.9219 L1199.9688,129.6406 Z "/><text fill="#000000" font-family="sans-serif" font-size="12" lengthAdjust="spacingAndGlyphs" textLength="110" x="1211" y="128.1543">ApprovalOutcome</text><line style="stroke: #A80036; stroke-width: 1.5;" x1="1183" x2="1323" y1="140" y2="140"/><text fill="#000000" font-family="sans-serif" font-size="11" lengthAdjust="spacingAndGlyphs" textLength="77" x="1188" y="154.2104">name : string</text><line style="stroke: #A80036; stroke-width: 1.5;" x1="1183" x2="1323" y1="160.8047" y2="160.8047"/><!--MD5=[107d383624bf8862b8e44952a3fdac58]
link N1 to Item--><path d="M577.8069,32.7834 C464.0478,40.4154 272.0087,59.7907 114,108 C108.0723,109.8086 102.0061,112.107 96.0918,114.6284 " fill="none" id="N1-Item" style="stroke: #A80036; stroke-width: 1.0; stroke-dasharray: 7.0,7.0;"/><!--MD5=[4e3fd7ccac18e8159b26c220636177d5]
link N1 to Review--><path d="M577.9571,38.0428 C487.9009,49.0995 351.5894,70.4943 238,108 C232.3045,109.8806 226.4687,112.19 220.7647,114.6891 " fill="none" id="N1-Review" style="stroke: #A80036; stroke-width: 1.0; stroke-dasharray: 7.0,7.0;"/><!--MD5=[a642373baaddb0249ec99919e6b62647]
link N1 to Comment--><path d="M577.8537,47.8725 C515.6304,61.7609 433.9706,82.3845 364,108 C358.2944,110.0888 352.4143,112.5251 346.6455,115.0935 " fill="none" id="N1-Comment" style="stroke: #A80036; stroke-width: 1.0; stroke-dasharray: 7.0,7.0;"/><!--MD5=[2bbec86fd872d51efc1719f1f3246418]
link N1 to User--><path d="M626.5925,48.1551 C588.4869,63.909 534.5951,86.6447 488,108 C482.3294,110.5989 476.4043,113.4005 470.5622,116.2151 " fill="none" id="N1-User" style="stroke: #A80036; stroke-width: 1.0; stroke-dasharray: 7.0,7.0;"/><!--MD5=[a5e544b446879ea90bb516e4c4196a49]
link N1 to UserType--><path d="M653.3634,48.0107 C634.5084,64.6786 607.346,88.6901 585.739,107.7907 " fill="none" id="N1-UserType" style="stroke: #A80036; stroke-width: 1.0; stroke-dasharray: 7.0,7.0;"/><!--MD5=[990c2068d4dbda63fdbe733301cfeeca]
link N1 to Rate--><path d="M698.4555,48.0107 C717.1597,64.6786 744.1048,88.6901 765.5389,107.7907 " fill="none" id="N1-Rate" style="stroke: #A80036; stroke-width: 1.0; stroke-dasharray: 7.0,7.0;"/><!--MD5=[7b1a2df04f23ae5baa5c3f1cb4bdd7fd]
link N1 to Attribute--><path d="M676,48.0107 C676,64.6786 676,88.6901 676,107.7907 " fill="none" id="N1-Attribute" style="stroke: #A80036; stroke-width: 1.0; stroke-dasharray: 7.0,7.0;"/><!--MD5=[ce451898835784797b4d1f53d34aef06]
link N1 to ApprovalProcess--><path d="M774.2645,32.8837 C905.2679,40.9597 1143.6632,61.1357 1342,108 C1347.4929,109.2979 1353.1218,110.8339 1358.7399,112.5154 " fill="none" id="N1-ApprovalProcess" style="stroke: #A80036; stroke-width: 1.0; stroke-dasharray: 7.0,7.0;"/><!--MD5=[32fde873e3c71bd542018b90d03a6884]
link N1 to ApprovalStart--><path d="M723.4462,48.0107 C767.2428,66.4822 832.4239,93.9727 879.4429,113.8032 " fill="none" id="N1-ApprovalStart" style="stroke: #A80036; stroke-width: 1.0; stroke-dasharray: 7.0,7.0;"/><!--MD5=[410aba03d65d314729b3131d6e88eb45]
link N1 to ApprovalStep--><path d="M774.3423,47.0982 C842.3734,61.3226 934.5894,82.6217 1014,108 C1019.6235,109.7972 1025.4205,111.8256 1031.1827,113.961 " fill="none" id="N1-ApprovalStep" style="stroke: #A80036; stroke-width: 1.0; stroke-dasharray: 7.0,7.0;"/><!--MD5=[b9a80362d20654b0d1417c4b1715e77d]
link N1 to ApprovalOutcome--><path d="M774.2046,39.1819 C873.4609,51.6289 1030.7813,74.5052 1164,108 C1169.861,109.4736 1175.8869,111.1584 1181.9077,112.9625 " fill="none" id="N1-ApprovalOutcome" style="stroke: #A80036; stroke-width: 1.0; stroke-dasharray: 7.0,7.0;"/><!--MD5=[e59eb1cb127abba6f78d415b678393d8]
@startuml
note "Constraint\nName should not be empty" as N1

note "Constraint\nIs used by at least 1 comment, review or rate" as N2

class Item{
  Name : string
}

class Review{
  name : string
}

class Comment{
  name : string
}

class User{
  name : string
}

class UserType{
  name : string
}

class Attribute{
  name : string
}

class Rate{
  name : string
}

class ApprovalProcess{
  name : string
}
class ApprovalStart{
  name : string
}
class ApprovalStep{
  name : string
}
class ApprovalOutcome{
  name : string
}

N1 .. Item
N1 .. Review
N1 .. Comment
N1 .. User
N1 .. UserType
N1 .. Rate
N1 .. Attribute
N1 .. ApprovalProcess
N1 .. ApprovalStart
N1 .. ApprovalStep
N1 .. ApprovalOutcome

N2 .. ApprovalProcess
@enduml

PlantUML version 1.2019.12(Sun Nov 03 10:24:54 UTC 2019)
(GPL source distribution)
Java Runtime: OpenJDK Runtime Environment
JVM: OpenJDK 64-Bit Server VM
Java Version: 1.8.0_232-heroku-b09
Operating System: Linux
Default Encoding: UTF-8
Language: en
Country: US
--></g></svg>