<?xml version="1.0" encoding="UTF-8" standalone="no"?><svg xmlns="http://www.w3.org/2000/svg" xmlns:xlink="http://www.w3.org/1999/xlink" contentScriptType="application/ecmascript" contentStyleType="text/css" height="528px" preserveAspectRatio="none" style="width:552px;height:528px;" version="1.1" viewBox="0 0 552 528" width="552px" zoomAndPan="magnify"><defs><filter height="300%" id="f1f32m5fr1z8h" width="300%" x="-1" y="-1"><feGaussianBlur result="blurOut" stdDeviation="2.0"/><feColorMatrix in="blurOut" result="blurOut2" type="matrix" values="0 0 0 0 0 0 0 0 0 0 0 0 0 0 0 0 0 0 .4 0"/><feOffset dx="4.0" dy="4.0" in="blurOut2" result="blurOut3"/><feBlend in="SourceGraphic" in2="blurOut3" mode="normal"/></filter></defs><g><!--MD5=[3fd616f346a44cd59a91eb10b19e157c]
class User--><rect fill="#FEFECE" filter="url(#f1f32m5fr1z8h)" height="86.4141" id="User" style="stroke: #A80036; stroke-width: 1.5;" width="116" x="6" y="8"/><ellipse cx="45.75" cy="24" fill="#ADD1B2" rx="11" ry="11" style="stroke: #A80036; stroke-width: 1.0;"/><path d="M48.7188,29.6406 Q48.1406,29.9375 47.5,30.0859 Q46.8594,30.2344 46.1563,30.2344 Q43.6563,30.2344 42.3359,28.5859 Q41.0156,26.9375 41.0156,23.8125 Q41.0156,20.6875 42.3359,19.0313 Q43.6563,17.375 46.1563,17.375 Q46.8594,17.375 47.5078,17.5313 Q48.1563,17.6875 48.7188,17.9844 L48.7188,20.7031 Q48.0938,20.125 47.5,19.8516 Q46.9063,19.5781 46.2813,19.5781 Q44.9375,19.5781 44.25,20.6484 Q43.5625,21.7188 43.5625,23.8125 Q43.5625,25.9063 44.25,26.9766 Q44.9375,28.0469 46.2813,28.0469 Q46.9063,28.0469 47.5,27.7734 Q48.0938,27.5 48.7188,26.9219 L48.7188,29.6406 Z "/><text fill="#000000" font-family="sans-serif" font-size="12" lengthAdjust="spacingAndGlyphs" textLength="29" x="65.25" y="28.1543">User</text><line style="stroke: #A80036; stroke-width: 1.5;" x1="7" x2="121" y1="40" y2="40"/><text fill="#000000" font-family="sans-serif" font-size="11" lengthAdjust="spacingAndGlyphs" textLength="104" x="12" y="54.2104">Username : string</text><text fill="#000000" font-family="sans-serif" font-size="11" lengthAdjust="spacingAndGlyphs" textLength="103" x="12" y="67.0151">FirstName : string</text><text fill="#000000" font-family="sans-serif" font-size="11" lengthAdjust="spacingAndGlyphs" textLength="102" x="12" y="79.8198">LastName : string</text><line style="stroke: #A80036; stroke-width: 1.5;" x1="7" x2="121" y1="86.4141" y2="86.4141"/><!--MD5=[8515a37c80da559ff7ce07f8a9e75d30]
class Place--><rect fill="#FEFECE" filter="url(#f1f32m5fr1z8h)" height="73.6094" id="Place" style="stroke: #A80036; stroke-width: 1.5;" width="121" x="420.5" y="155"/><ellipse cx="460.25" cy="171" fill="#ADD1B2" rx="11" ry="11" style="stroke: #A80036; stroke-width: 1.0;"/><path d="M463.2188,176.6406 Q462.6406,176.9375 462,177.0859 Q461.3594,177.2344 460.6563,177.2344 Q458.1563,177.2344 456.8359,175.5859 Q455.5156,173.9375 455.5156,170.8125 Q455.5156,167.6875 456.8359,166.0313 Q458.1563,164.375 460.6563,164.375 Q461.3594,164.375 462.0078,164.5313 Q462.6563,164.6875 463.2188,164.9844 L463.2188,167.7031 Q462.5938,167.125 462,166.8516 Q461.4063,166.5781 460.7813,166.5781 Q459.4375,166.5781 458.75,167.6484 Q458.0625,168.7188 458.0625,170.8125 Q458.0625,172.9063 458.75,173.9766 Q459.4375,175.0469 460.7813,175.0469 Q461.4063,175.0469 462,174.7734 Q462.5938,174.5 463.2188,173.9219 L463.2188,176.6406 Z "/><text fill="#000000" font-family="sans-serif" font-size="12" lengthAdjust="spacingAndGlyphs" textLength="34" x="479.75" y="175.1543">Place</text><line style="stroke: #A80036; stroke-width: 1.5;" x1="421.5" x2="540.5" y1="187" y2="187"/><text fill="#000000" font-family="sans-serif" font-size="11" lengthAdjust="spacingAndGlyphs" textLength="78" x="426.5" y="201.2104">Name : string</text><text fill="#000000" font-family="sans-serif" font-size="11" lengthAdjust="spacingAndGlyphs" textLength="109" x="426.5" y="214.0151">Description : string</text><line style="stroke: #A80036; stroke-width: 1.5;" x1="421.5" x2="540.5" y1="220.6094" y2="220.6094"/><!--MD5=[eb0e8f8ddfdc21c3fdb48447501fec67]
class Review--><rect fill="#FEFECE" filter="url(#f1f32m5fr1z8h)" height="73.6094" id="Review" style="stroke: #A80036; stroke-width: 1.5;" width="112" x="198" y="306"/><ellipse cx="230.1" cy="322" fill="#ADD1B2" rx="11" ry="11" style="stroke: #A80036; stroke-width: 1.0;"/><path d="M233.0688,327.6406 Q232.4906,327.9375 231.85,328.0859 Q231.2094,328.2344 230.5063,328.2344 Q228.0063,328.2344 226.6859,326.5859 Q225.3656,324.9375 225.3656,321.8125 Q225.3656,318.6875 226.6859,317.0313 Q228.0063,315.375 230.5063,315.375 Q231.2094,315.375 231.8578,315.5313 Q232.5063,315.6875 233.0688,315.9844 L233.0688,318.7031 Q232.4438,318.125 231.85,317.8516 Q231.2563,317.5781 230.6313,317.5781 Q229.2875,317.5781 228.6,318.6484 Q227.9125,319.7188 227.9125,321.8125 Q227.9125,323.9063 228.6,324.9766 Q229.2875,326.0469 230.6313,326.0469 Q231.2563,326.0469 231.85,325.7734 Q232.4438,325.5 233.0688,324.9219 L233.0688,327.6406 Z "/><text fill="#000000" font-family="sans-serif" font-size="12" lengthAdjust="spacingAndGlyphs" textLength="42" x="247.9" y="326.1543">Review</text><line style="stroke: #A80036; stroke-width: 1.5;" x1="199" x2="309" y1="338" y2="338"/><text fill="#000000" font-family="sans-serif" font-size="11" lengthAdjust="spacingAndGlyphs" textLength="75" x="204" y="352.2104">Rate : double</text><text fill="#000000" font-family="sans-serif" font-size="11" lengthAdjust="spacingAndGlyphs" textLength="100" x="204" y="365.0151">Comment : string</text><line style="stroke: #A80036; stroke-width: 1.5;" x1="199" x2="309" y1="371.6094" y2="371.6094"/><!--MD5=[2a1178cdf91c51b7ef96a75ca9ff60f4]
class ReviewPhoto--><rect fill="#FEFECE" filter="url(#f1f32m5fr1z8h)" height="60.8047" id="ReviewPhoto" style="stroke: #A80036; stroke-width: 1.5;" width="135" x="186.5" y="457"/><ellipse cx="212.3" cy="473" fill="#ADD1B2" rx="11" ry="11" style="stroke: #A80036; stroke-width: 1.0;"/><path d="M215.2688,478.6406 Q214.6906,478.9375 214.05,479.0859 Q213.4094,479.2344 212.7063,479.2344 Q210.2063,479.2344 208.8859,477.5859 Q207.5656,475.9375 207.5656,472.8125 Q207.5656,469.6875 208.8859,468.0313 Q210.2063,466.375 212.7063,466.375 Q213.4094,466.375 214.0578,466.5313 Q214.7063,466.6875 215.2688,466.9844 L215.2688,469.7031 Q214.6438,469.125 214.05,468.8516 Q213.4563,468.5781 212.8313,468.5781 Q211.4875,468.5781 210.8,469.6484 Q210.1125,470.7188 210.1125,472.8125 Q210.1125,474.9063 210.8,475.9766 Q211.4875,477.0469 212.8313,477.0469 Q213.4563,477.0469 214.05,476.7734 Q214.6438,476.5 215.2688,475.9219 L215.2688,478.6406 Z "/><text fill="#000000" font-family="sans-serif" font-size="12" lengthAdjust="spacingAndGlyphs" textLength="79" x="228.7" y="477.1543">ReviewPhoto</text><line style="stroke: #A80036; stroke-width: 1.5;" x1="187.5" x2="320.5" y1="489" y2="489"/><text fill="#000000" font-family="sans-serif" font-size="11" lengthAdjust="spacingAndGlyphs" textLength="123" x="192.5" y="503.2104">ImageContent : byte[]</text><line style="stroke: #A80036; stroke-width: 1.5;" x1="187.5" x2="320.5" y1="509.8047" y2="509.8047"/><path d="M123,179.5 L123,204.6328 L385,204.6328 L385,189.5 L375,179.5 L123,179.5 " fill="#FBFB77" filter="url(#f1f32m5fr1z8h)" style="stroke: #A80036; stroke-width: 1.0;"/><path d="M375,179.5 L375,189.5 L385,189.5 L375,179.5 " fill="#FBFB77" style="stroke: #A80036; stroke-width: 1.0;"/><text fill="#000000" font-family="sans-serif" font-size="13" lengthAdjust="spacingAndGlyphs" textLength="241" x="129" y="196.5669">User can only have 1 review per place</text><!--MD5=[fa6744d55d54e72d613c0b289fbd1eb1]
reverse link Place to Review--><path d="M414.211,236.4279 C381.0814,258.4657 341.52,284.7819 309.9991,305.7495 " fill="none" id="Place&lt;-Review" style="stroke: #A80036; stroke-width: 1.0;"/><polygon fill="#FFFFFF" points="425.1788,229.1322,417.9677,229.1249,415.1874,235.7785,422.3985,235.7858,425.1788,229.1322" style="stroke: #A80036; stroke-width: 1.0;"/><text fill="#000000" font-family="sans-serif" font-size="13" lengthAdjust="spacingAndGlyphs" textLength="23" x="375" y="272.0669">has</text><text fill="#000000" font-family="sans-serif" font-size="13" lengthAdjust="spacingAndGlyphs" textLength="7" x="312.3505" y="294.8918">*</text><!--MD5=[d92bfa42f271697f7425990ccf420e93]
reverse link Review to ReviewPhoto--><path d="M254,393.2739 C254,414.4045 254,438.3069 254,456.7503 " fill="none" id="Review&lt;-ReviewPhoto" style="stroke: #A80036; stroke-width: 1.0;"/><polygon fill="#FFFFFF" points="254,380.2123,250,386.2123,254,392.2123,258,386.2123,254,380.2123" style="stroke: #A80036; stroke-width: 1.0;"/><text fill="#000000" font-family="sans-serif" font-size="13" lengthAdjust="spacingAndGlyphs" textLength="23" x="255" y="423.0669">has</text><text fill="#000000" font-family="sans-serif" font-size="13" lengthAdjust="spacingAndGlyphs" textLength="8" x="245.3375" y="399.728">1</text><text fill="#000000" font-family="sans-serif" font-size="13" lengthAdjust="spacingAndGlyphs" textLength="7" x="246.2781" y="445.962">*</text><!--MD5=[6415063213547b35a52066d7b53eb916]
link User to Review--><path d="M51.5503,94.3123 C43.2095,132.3715 37.5597,187.9305 61,229 C90.1281,280.0352 152.0419,310.5272 197.9304,326.9546 " fill="none" id="User-Review" style="stroke: #A80036; stroke-width: 1.0;"/><text fill="#000000" font-family="sans-serif" font-size="13" lengthAdjust="spacingAndGlyphs" textLength="42" x="62" y="196.5669">author</text><text fill="#000000" font-family="sans-serif" font-size="13" lengthAdjust="spacingAndGlyphs" textLength="8" x="40.9286" y="114.455">1</text><text fill="#000000" font-family="sans-serif" font-size="13" lengthAdjust="spacingAndGlyphs" textLength="7" x="182.9257" y="320.8927">*</text><!--MD5=[640b3f2847c5d44ae879f14410ba5c79]
link User to N1--><path d="M122.0387,94.0708 C161.5444,123.3882 211.1531,160.2031 236.8299,179.258 " fill="none" id="User-N1" style="stroke: #A80036; stroke-width: 1.0; stroke-dasharray: 7.0,7.0;"/><!--MD5=[4e3fd7ccac18e8159b26c220636177d5]
link N1 to Review--><path d="M254,204.6145 C254,226.6586 254,272.9815 254,305.9548 " fill="none" id="N1-Review" style="stroke: #A80036; stroke-width: 1.0; stroke-dasharray: 7.0,7.0;"/><!--MD5=[8046d876c0d0978e2626b98843bac561]
@startuml
class User{
  Username : string
  FirstName : string
  LastName : string
}

class Place{
  Name : string
  Description : string
}

class Review{
  Rate : double
  Comment : string
}

class ReviewPhoto{
  ImageContent : byte[]
}

class Review

Place o- - "*" Review : has
Review "1" o- - "*" ReviewPhoto : has
User "1" - - "*" Review : author

note  "User can only have 1 review per place" as N1
User .. N1
N1 .. Review
@enduml

PlantUML version 1.2019.12(Sun Nov 03 10:24:54 UTC 2019)
(GPL source distribution)
Java Runtime: OpenJDK Runtime Environment
JVM: OpenJDK 64-Bit Server VM
Java Version: 1.8.0_232-heroku-b09
Operating System: Linux
Default Encoding: UTF-8
Language: en
Country: US
--></g></svg>