<?xml version="1.0" encoding="UTF-8" standalone="no"?><svg xmlns="http://www.w3.org/2000/svg" xmlns:xlink="http://www.w3.org/1999/xlink" contentScriptType="application/ecmascript" contentStyleType="text/css" height="486px" preserveAspectRatio="none" style="width:340px;height:486px;" version="1.1" viewBox="0 0 340 486" width="340px" zoomAndPan="magnify"><defs><filter height="300%" id="f1jb81dt0a8v0a" width="300%" x="-1" y="-1"><feGaussianBlur result="blurOut" stdDeviation="2.0"/><feColorMatrix in="blurOut" result="blurOut2" type="matrix" values="0 0 0 0 0 0 0 0 0 0 0 0 0 0 0 0 0 0 .4 0"/><feOffset dx="4.0" dy="4.0" in="blurOut2" result="blurOut3"/><feBlend in="SourceGraphic" in2="blurOut3" mode="normal"/></filter></defs><g><!--MD5=[3fd616f346a44cd59a91eb10b19e157c]
class User--><rect fill="#FEFECE" filter="url(#f1jb81dt0a8v0a)" height="86.4141" id="User" style="stroke: #A80036; stroke-width: 1.5;" width="116" x="18.5" y="8"/><ellipse cx="58.25" cy="24" fill="#ADD1B2" rx="11" ry="11" style="stroke: #A80036; stroke-width: 1.0;"/><path d="M61.2188,29.6406 Q60.6406,29.9375 60,30.0859 Q59.3594,30.2344 58.6563,30.2344 Q56.1563,30.2344 54.8359,28.5859 Q53.5156,26.9375 53.5156,23.8125 Q53.5156,20.6875 54.8359,19.0313 Q56.1563,17.375 58.6563,17.375 Q59.3594,17.375 60.0078,17.5313 Q60.6563,17.6875 61.2188,17.9844 L61.2188,20.7031 Q60.5938,20.125 60,19.8516 Q59.4063,19.5781 58.7813,19.5781 Q57.4375,19.5781 56.75,20.6484 Q56.0625,21.7188 56.0625,23.8125 Q56.0625,25.9063 56.75,26.9766 Q57.4375,28.0469 58.7813,28.0469 Q59.4063,28.0469 60,27.7734 Q60.5938,27.5 61.2188,26.9219 L61.2188,29.6406 Z "/><text fill="#000000" font-family="sans-serif" font-size="12" lengthAdjust="spacingAndGlyphs" textLength="29" x="77.75" y="28.1543">User</text><line style="stroke: #A80036; stroke-width: 1.5;" x1="19.5" x2="133.5" y1="40" y2="40"/><text fill="#000000" font-family="sans-serif" font-size="11" lengthAdjust="spacingAndGlyphs" textLength="104" x="24.5" y="54.2104">Username : string</text><text fill="#000000" font-family="sans-serif" font-size="11" lengthAdjust="spacingAndGlyphs" textLength="103" x="24.5" y="67.0151">FirstName : string</text><text fill="#000000" font-family="sans-serif" font-size="11" lengthAdjust="spacingAndGlyphs" textLength="102" x="24.5" y="79.8198">LastName : string</text><line style="stroke: #A80036; stroke-width: 1.5;" x1="19.5" x2="133.5" y1="86.4141" y2="86.4141"/><!--MD5=[0f56501c91b90f32a04b2136e9f4dc84]
class Sandwich--><rect fill="#FEFECE" filter="url(#f1jb81dt0a8v0a)" height="73.6094" id="Sandwich" style="stroke: #A80036; stroke-width: 1.5;" width="121" x="177" y="14"/><ellipse cx="205.5" cy="30" fill="#ADD1B2" rx="11" ry="11" style="stroke: #A80036; stroke-width: 1.0;"/><path d="M208.4688,35.6406 Q207.8906,35.9375 207.25,36.0859 Q206.6094,36.2344 205.9063,36.2344 Q203.4063,36.2344 202.0859,34.5859 Q200.7656,32.9375 200.7656,29.8125 Q200.7656,26.6875 202.0859,25.0313 Q203.4063,23.375 205.9063,23.375 Q206.6094,23.375 207.2578,23.5313 Q207.9063,23.6875 208.4688,23.9844 L208.4688,26.7031 Q207.8438,26.125 207.25,25.8516 Q206.6563,25.5781 206.0313,25.5781 Q204.6875,25.5781 204,26.6484 Q203.3125,27.7188 203.3125,29.8125 Q203.3125,31.9063 204,32.9766 Q204.6875,34.0469 206.0313,34.0469 Q206.6563,34.0469 207.25,33.7734 Q207.8438,33.5 208.4688,32.9219 L208.4688,35.6406 Z "/><text fill="#000000" font-family="sans-serif" font-size="12" lengthAdjust="spacingAndGlyphs" textLength="59" x="222.5" y="34.1543">Sandwich</text><line style="stroke: #A80036; stroke-width: 1.5;" x1="178" x2="297" y1="46" y2="46"/><text fill="#000000" font-family="sans-serif" font-size="11" lengthAdjust="spacingAndGlyphs" textLength="78" x="183" y="60.2104">Name : string</text><text fill="#000000" font-family="sans-serif" font-size="11" lengthAdjust="spacingAndGlyphs" textLength="109" x="183" y="73.0151">Description : string</text><line style="stroke: #A80036; stroke-width: 1.5;" x1="178" x2="297" y1="79.6094" y2="79.6094"/><!--MD5=[0b83492021a2ada4b97aa2318f99f432]
class Rate--><rect fill="#FEFECE" filter="url(#f1jb81dt0a8v0a)" height="60.8047" id="Rate" style="stroke: #A80036; stroke-width: 1.5;" width="93" x="27" y="171"/><ellipse cx="56.4" cy="187" fill="#ADD1B2" rx="11" ry="11" style="stroke: #A80036; stroke-width: 1.0;"/><path d="M59.3688,192.6406 Q58.7906,192.9375 58.15,193.0859 Q57.5094,193.2344 56.8063,193.2344 Q54.3063,193.2344 52.9859,191.5859 Q51.6656,189.9375 51.6656,186.8125 Q51.6656,183.6875 52.9859,182.0313 Q54.3063,180.375 56.8063,180.375 Q57.5094,180.375 58.1578,180.5313 Q58.8063,180.6875 59.3688,180.9844 L59.3688,183.7031 Q58.7438,183.125 58.15,182.8516 Q57.5563,182.5781 56.9313,182.5781 Q55.5875,182.5781 54.9,183.6484 Q54.2125,184.7188 54.2125,186.8125 Q54.2125,188.9063 54.9,189.9766 Q55.5875,191.0469 56.9313,191.0469 Q57.5563,191.0469 58.15,190.7734 Q58.7438,190.5 59.3688,189.9219 L59.3688,192.6406 Z "/><text fill="#000000" font-family="sans-serif" font-size="12" lengthAdjust="spacingAndGlyphs" textLength="29" x="73.6" y="191.1543">Rate</text><line style="stroke: #A80036; stroke-width: 1.5;" x1="28" x2="119" y1="203" y2="203"/><text fill="#000000" font-family="sans-serif" font-size="11" lengthAdjust="spacingAndGlyphs" textLength="81" x="33" y="217.2104">Value : double</text><line style="stroke: #A80036; stroke-width: 1.5;" x1="28" x2="119" y1="223.8047" y2="223.8047"/><!--MD5=[eb0e8f8ddfdc21c3fdb48447501fec67]
class Review--><rect fill="#FEFECE" filter="url(#f1jb81dt0a8v0a)" height="60.8047" id="Review" style="stroke: #A80036; stroke-width: 1.5;" width="112" x="17.5" y="293"/><ellipse cx="49.6" cy="309" fill="#ADD1B2" rx="11" ry="11" style="stroke: #A80036; stroke-width: 1.0;"/><path d="M52.5688,314.6406 Q51.9906,314.9375 51.35,315.0859 Q50.7094,315.2344 50.0063,315.2344 Q47.5063,315.2344 46.1859,313.5859 Q44.8656,311.9375 44.8656,308.8125 Q44.8656,305.6875 46.1859,304.0313 Q47.5063,302.375 50.0063,302.375 Q50.7094,302.375 51.3578,302.5313 Q52.0063,302.6875 52.5688,302.9844 L52.5688,305.7031 Q51.9438,305.125 51.35,304.8516 Q50.7563,304.5781 50.1313,304.5781 Q48.7875,304.5781 48.1,305.6484 Q47.4125,306.7188 47.4125,308.8125 Q47.4125,310.9063 48.1,311.9766 Q48.7875,313.0469 50.1313,313.0469 Q50.7563,313.0469 51.35,312.7734 Q51.9438,312.5 52.5688,311.9219 L52.5688,314.6406 Z "/><text fill="#000000" font-family="sans-serif" font-size="12" lengthAdjust="spacingAndGlyphs" textLength="42" x="67.4" y="313.1543">Review</text><line style="stroke: #A80036; stroke-width: 1.5;" x1="18.5" x2="128.5" y1="325" y2="325"/><text fill="#000000" font-family="sans-serif" font-size="11" lengthAdjust="spacingAndGlyphs" textLength="100" x="23.5" y="339.2104">Comment : string</text><line style="stroke: #A80036; stroke-width: 1.5;" x1="18.5" x2="128.5" y1="345.8047" y2="345.8047"/><!--MD5=[2a1178cdf91c51b7ef96a75ca9ff60f4]
class ReviewPhoto--><rect fill="#FEFECE" filter="url(#f1jb81dt0a8v0a)" height="60.8047" id="ReviewPhoto" style="stroke: #A80036; stroke-width: 1.5;" width="135" x="6" y="415"/><ellipse cx="31.8" cy="431" fill="#ADD1B2" rx="11" ry="11" style="stroke: #A80036; stroke-width: 1.0;"/><path d="M34.7688,436.6406 Q34.1906,436.9375 33.55,437.0859 Q32.9094,437.2344 32.2063,437.2344 Q29.7063,437.2344 28.3859,435.5859 Q27.0656,433.9375 27.0656,430.8125 Q27.0656,427.6875 28.3859,426.0313 Q29.7063,424.375 32.2063,424.375 Q32.9094,424.375 33.5578,424.5313 Q34.2063,424.6875 34.7688,424.9844 L34.7688,427.7031 Q34.1438,427.125 33.55,426.8516 Q32.9563,426.5781 32.3313,426.5781 Q30.9875,426.5781 30.3,427.6484 Q29.6125,428.7188 29.6125,430.8125 Q29.6125,432.9063 30.3,433.9766 Q30.9875,435.0469 32.3313,435.0469 Q32.9563,435.0469 33.55,434.7734 Q34.1438,434.5 34.7688,433.9219 L34.7688,436.6406 Z "/><text fill="#000000" font-family="sans-serif" font-size="12" lengthAdjust="spacingAndGlyphs" textLength="79" x="48.2" y="435.1543">ReviewPhoto</text><line style="stroke: #A80036; stroke-width: 1.5;" x1="7" x2="140" y1="447" y2="447"/><text fill="#000000" font-family="sans-serif" font-size="11" lengthAdjust="spacingAndGlyphs" textLength="123" x="12" y="461.2104">ImageContent : byte[]</text><line style="stroke: #A80036; stroke-width: 1.5;" x1="7" x2="140" y1="467.8047" y2="467.8047"/><!--MD5=[042fa140da40c49659127f611bcff931]
class Comment--><rect fill="#FEFECE" filter="url(#f1jb81dt0a8v0a)" height="60.8047" id="Comment" style="stroke: #A80036; stroke-width: 1.5;" width="156" x="173.5" y="171"/><ellipse cx="217.75" cy="187" fill="#ADD1B2" rx="11" ry="11" style="stroke: #A80036; stroke-width: 1.0;"/><path d="M220.7188,192.6406 Q220.1406,192.9375 219.5,193.0859 Q218.8594,193.2344 218.1563,193.2344 Q215.6563,193.2344 214.3359,191.5859 Q213.0156,189.9375 213.0156,186.8125 Q213.0156,183.6875 214.3359,182.0313 Q215.6563,180.375 218.1563,180.375 Q218.8594,180.375 219.5078,180.5313 Q220.1563,180.6875 220.7188,180.9844 L220.7188,183.7031 Q220.0938,183.125 219.5,182.8516 Q218.9063,182.5781 218.2813,182.5781 Q216.9375,182.5781 216.25,183.6484 Q215.5625,184.7188 215.5625,186.8125 Q215.5625,188.9063 216.25,189.9766 Q216.9375,191.0469 218.2813,191.0469 Q218.9063,191.0469 219.5,190.7734 Q220.0938,190.5 220.7188,189.9219 L220.7188,192.6406 Z "/><text fill="#000000" font-family="sans-serif" font-size="12" lengthAdjust="spacingAndGlyphs" textLength="59" x="238.25" y="191.1543">Comment</text><line style="stroke: #A80036; stroke-width: 1.5;" x1="174.5" x2="328.5" y1="203" y2="203"/><text fill="#000000" font-family="sans-serif" font-size="11" lengthAdjust="spacingAndGlyphs" textLength="144" x="179.5" y="217.2104">CommentContent : string</text><line style="stroke: #A80036; stroke-width: 1.5;" x1="174.5" x2="328.5" y1="223.8047" y2="223.8047"/><!--MD5=[2dd21c5e4d24a00e804d12dd0c7b0d9f]
link User to Comment--><path d="M87.364,94.2873 C93.2096,110.551 101.8917,128.184 114.5,141 C130.7287,157.496 152.2319,169.8344 173.3806,178.9123 " fill="none" id="User-Comment" style="stroke: #A80036; stroke-width: 1.0;"/><text fill="#000000" font-family="sans-serif" font-size="13" lengthAdjust="spacingAndGlyphs" textLength="42" x="115.5" y="137.0669">author</text><text fill="#000000" font-family="sans-serif" font-size="13" lengthAdjust="spacingAndGlyphs" textLength="8" x="80.458" y="114.426">1</text><text fill="#000000" font-family="sans-serif" font-size="13" lengthAdjust="spacingAndGlyphs" textLength="7" x="158.6013" y="173.1271">*</text><!--MD5=[66155c01708337db09b0ec7be638a157]
link Sandwich to Comment--><path d="M242.0722,100.1507 C242.0722,100.1507 245.7775,139.9828 247.4197,157.6365 " fill="none" id="Sandwich-Comment" style="stroke: #A80036; stroke-width: 1.0;"/><polygon fill="#A80036" points="248.6442,170.8002,251.7934,161.4684,248.1811,165.8217,243.8278,162.2094,248.6442,170.8002" style="stroke: #A80036; stroke-width: 1.0;"/><line style="stroke: #A80036; stroke-width: 1.0;" x1="248.1811" x2="247.44" y1="165.8217" y2="157.8562"/><polygon fill="#FFFFFF" points="240.9607,88.2023,237.5337,94.547,242.0722,100.1507,245.4993,93.806,240.9607,88.2023" style="stroke: #A80036; stroke-width: 1.0;"/><text fill="#000000" font-family="sans-serif" font-size="13" lengthAdjust="spacingAndGlyphs" textLength="23" x="246.5" y="137.0669">has</text><text fill="#000000" font-family="sans-serif" font-size="13" lengthAdjust="spacingAndGlyphs" textLength="8" x="232.8714" y="107.7164">1</text><text fill="#000000" font-family="sans-serif" font-size="13" lengthAdjust="spacingAndGlyphs" textLength="7" x="240.3333" y="160.0222">*</text><!--MD5=[0d2f6f3fd3bf2b959d8dd305006d9ac1]
link Sandwich to Rate--><path d="M205.0972,97.9278 C205.0972,97.9278 180.0877,128.5979 166.5,141 C155.8256,150.743 143.4195,159.9718 131.2136,168.1511 " fill="none" id="Sandwich-Rate" style="stroke: #A80036; stroke-width: 1.0;"/><polygon fill="#A80036" points="120.1159,175.3522,129.843,173.8086,124.3102,172.6305,125.4883,167.0977,120.1159,175.3522" style="stroke: #A80036; stroke-width: 1.0;"/><line style="stroke: #A80036; stroke-width: 1.0;" x1="124.3102" x2="131.0213" y1="172.6305" y2="168.2759"/><polygon fill="#FFFFFF" points="212.3211,88.3458,205.5151,90.7288,205.0972,97.9278,211.9031,95.5448,212.3211,88.3458" style="stroke: #A80036; stroke-width: 1.0;"/><text fill="#000000" font-family="sans-serif" font-size="13" lengthAdjust="spacingAndGlyphs" textLength="23" x="183.5" y="137.0669">has</text><text fill="#000000" font-family="sans-serif" font-size="13" lengthAdjust="spacingAndGlyphs" textLength="8" x="199.6707" y="107.6017">1</text><text fill="#000000" font-family="sans-serif" font-size="13" lengthAdjust="spacingAndGlyphs" textLength="7" x="128.1031" y="167.0826">*</text><!--MD5=[c3265fded25d85e78ef43af8bf16dd19]
link User to Rate--><path d="M46.8089,94.1621 C41.728,103.605 37.2171,113.8292 34.5,124 C30.146,140.2984 37.0666,157.1697 46.2299,170.993 " fill="none" id="User-Rate" style="stroke: #A80036; stroke-width: 1.0;"/><text fill="#000000" font-family="sans-serif" font-size="13" lengthAdjust="spacingAndGlyphs" textLength="42" x="35.5" y="137.0669">author</text><text fill="#000000" font-family="sans-serif" font-size="13" lengthAdjust="spacingAndGlyphs" textLength="8" x="33.2288" y="114.5966">1</text><text fill="#000000" font-family="sans-serif" font-size="13" lengthAdjust="spacingAndGlyphs" textLength="7" x="32.4989" y="159.7818">*</text><!--MD5=[2c39ece8b939867e074150a3ea8641cf]
reverse link Rate to Review--><path d="M73.5,245.5041 C73.5,261.152 73.5,278.4213 73.5,292.7241 " fill="none" id="Rate&lt;-Review" style="stroke: #A80036; stroke-width: 1.0;"/><polygon fill="#FFFFFF" points="73.5,232.2858,69.5,238.2858,73.5,244.2858,77.5,238.2858,73.5,232.2858" style="stroke: #A80036; stroke-width: 1.0;"/><text fill="#000000" font-family="sans-serif" font-size="13" lengthAdjust="spacingAndGlyphs" textLength="8" x="64.7125" y="251.9225">1</text><text fill="#000000" font-family="sans-serif" font-size="13" lengthAdjust="spacingAndGlyphs" textLength="24" x="47.025" y="281.9304">0..1</text><!--MD5=[8fff8de810ae64b0c7ae6d0a1aa2d2f0]
link Review to ReviewPhoto--><path d="M73.5,366.2858 C73.5,366.2858 73.5,390.5729 73.5,401.6881 " fill="none" id="Review-ReviewPhoto" style="stroke: #A80036; stroke-width: 1.0;"/><polygon fill="#A80036" points="73.5,414.7241,77.5,405.7241,73.5,409.7241,69.5,405.7241,73.5,414.7241" style="stroke: #A80036; stroke-width: 1.0;"/><line style="stroke: #A80036; stroke-width: 1.0;" x1="73.5" x2="73.5001" y1="409.7241" y2="401.7241"/><polygon fill="#FFFFFF" points="73.5,354.2858,69.5,360.2858,73.5,366.2858,77.5,360.2858,73.5,354.2858" style="stroke: #A80036; stroke-width: 1.0;"/><text fill="#000000" font-family="sans-serif" font-size="13" lengthAdjust="spacingAndGlyphs" textLength="8" x="64.7125" y="373.9225">1</text><text fill="#000000" font-family="sans-serif" font-size="13" lengthAdjust="spacingAndGlyphs" textLength="7" x="65.7781" y="403.9304">*</text><!--MD5=[a5c66c7d8a9811666041ba53562507ab]
@startuml
class User{
  Username : string
  FirstName : string
  LastName : string
}

class Sandwich{
  Name : string
  Description : string
}

class Rate{
  Value : double
}

class Review{
  Comment : string
}

class ReviewPhoto{
  ImageContent : byte[]
}

class Comment{
  CommentContent : string
}

User "1" - - "*" Comment : author
Sandwich "1" o- -> "*" Comment : has
Sandwich "1" o- -> "*" Rate : has
User "1" - - "*" Rate : author
Rate "1" o- - "0..1" Review
Review "1" o- -> "*" ReviewPhoto
@enduml

PlantUML version 1.2019.12(Sun Nov 03 10:24:54 UTC 2019)
(GPL source distribution)
Java Runtime: OpenJDK Runtime Environment
JVM: OpenJDK 64-Bit Server VM
Java Version: 1.8.0_232-heroku-b09
Operating System: Linux
Default Encoding: UTF-8
Language: en
Country: US
--></g></svg>