<?xml version="1.0" encoding="UTF-8" standalone="no"?><svg xmlns="http://www.w3.org/2000/svg" xmlns:xlink="http://www.w3.org/1999/xlink" contentScriptType="application/ecmascript" contentStyleType="text/css" height="935px" preserveAspectRatio="none" style="width:833px;height:935px;" version="1.1" viewBox="0 0 833 935" width="833px" zoomAndPan="magnify"><defs><filter height="300%" id="f141x6brh26uo4" width="300%" x="-1" y="-1"><feGaussianBlur result="blurOut" stdDeviation="2.0"/><feColorMatrix in="blurOut" result="blurOut2" type="matrix" values="0 0 0 0 0 0 0 0 0 0 0 0 0 0 0 0 0 0 .4 0"/><feOffset dx="4.0" dy="4.0" in="blurOut2" result="blurOut3"/><feBlend in="SourceGraphic" in2="blurOut3" mode="normal"/></filter></defs><g><!--MD5=[7e20e022571e30ec1001cf6eabd7f3e2]
class Model--><rect codeLine="1" fill="#FEFECE" filter="url(#f141x6brh26uo4)" height="60.8047" id="Model" style="stroke:#A80036;stroke-width:1.5;" width="89" x="518.5" y="7"/><ellipse cx="542.5" cy="23" fill="#ADD1B2" rx="11" ry="11" style="stroke:#A80036;stroke-width:1.0;"/><path d="M545.4688,28.6406 Q544.8906,28.9375 544.25,29.0781 Q543.6094,29.2344 542.9063,29.2344 Q540.4063,29.2344 539.0781,27.5938 Q537.7656,25.9375 537.7656,22.8125 Q537.7656,19.6875 539.0781,18.0313 Q540.4063,16.375 542.9063,16.375 Q543.6094,16.375 544.25,16.5313 Q544.9063,16.6875 545.4688,16.9844 L545.4688,19.7031 Q544.8438,19.125 544.25,18.8594 Q543.6563,18.5781 543.0313,18.5781 Q541.6875,18.5781 541,19.6563 Q540.3125,20.7188 540.3125,22.8125 Q540.3125,24.9063 541,25.9844 Q541.6875,27.0469 543.0313,27.0469 Q543.6563,27.0469 544.25,26.7813 Q544.8438,26.5 545.4688,25.9219 L545.4688,28.6406 Z " fill="#000000"/><text fill="#000000" font-family="sans-serif" font-size="12" lengthAdjust="spacingAndGlyphs" textLength="37" x="558.5" y="27.1543">Model</text><line style="stroke:#A80036;stroke-width:1.5;" x1="519.5" x2="606.5" y1="39" y2="39"/><text fill="#000000" font-family="sans-serif" font-size="11" lengthAdjust="spacingAndGlyphs" textLength="77" x="524.5" y="53.2104">name : string</text><line style="stroke:#A80036;stroke-width:1.5;" x1="519.5" x2="606.5" y1="59.8047" y2="59.8047"/><!--MD5=[44a1b4afaef76c16e6c9ec4990ad0c8d]
class Item--><rect codeLine="5" fill="#FEFECE" filter="url(#f141x6brh26uo4)" height="60.8047" id="Item" style="stroke:#A80036;stroke-width:1.5;" width="89" x="397.5" y="373"/><ellipse cx="426" cy="389" fill="#ADD1B2" rx="11" ry="11" style="stroke:#A80036;stroke-width:1.0;"/><path d="M428.9688,394.6406 Q428.3906,394.9375 427.75,395.0781 Q427.1094,395.2344 426.4063,395.2344 Q423.9063,395.2344 422.5781,393.5938 Q421.2656,391.9375 421.2656,388.8125 Q421.2656,385.6875 422.5781,384.0313 Q423.9063,382.375 426.4063,382.375 Q427.1094,382.375 427.75,382.5313 Q428.4063,382.6875 428.9688,382.9844 L428.9688,385.7031 Q428.3438,385.125 427.75,384.8594 Q427.1563,384.5781 426.5313,384.5781 Q425.1875,384.5781 424.5,385.6563 Q423.8125,386.7188 423.8125,388.8125 Q423.8125,390.9063 424.5,391.9844 Q425.1875,393.0469 426.5313,393.0469 Q427.1563,393.0469 427.75,392.7813 Q428.3438,392.5 428.9688,391.9219 L428.9688,394.6406 Z " fill="#000000"/><text fill="#000000" font-family="sans-serif" font-size="12" lengthAdjust="spacingAndGlyphs" textLength="27" x="443" y="393.1543">Item</text><line style="stroke:#A80036;stroke-width:1.5;" x1="398.5" x2="485.5" y1="405" y2="405"/><text fill="#000000" font-family="sans-serif" font-size="11" lengthAdjust="spacingAndGlyphs" textLength="77" x="403.5" y="419.2104">name : string</text><line style="stroke:#A80036;stroke-width:1.5;" x1="398.5" x2="485.5" y1="425.8047" y2="425.8047"/><!--MD5=[eb0e8f8ddfdc21c3fdb48447501fec67]
class Review--><rect codeLine="9" fill="#FEFECE" filter="url(#f141x6brh26uo4)" height="60.8047" id="Review" style="stroke:#A80036;stroke-width:1.5;" width="89" x="103.5" y="373"/><ellipse cx="125.25" cy="389" fill="#ADD1B2" rx="11" ry="11" style="stroke:#A80036;stroke-width:1.0;"/><path d="M128.2188,394.6406 Q127.6406,394.9375 127,395.0781 Q126.3594,395.2344 125.6563,395.2344 Q123.1563,395.2344 121.8281,393.5938 Q120.5156,391.9375 120.5156,388.8125 Q120.5156,385.6875 121.8281,384.0313 Q123.1563,382.375 125.6563,382.375 Q126.3594,382.375 127,382.5313 Q127.6563,382.6875 128.2188,382.9844 L128.2188,385.7031 Q127.5938,385.125 127,384.8594 Q126.4063,384.5781 125.7813,384.5781 Q124.4375,384.5781 123.75,385.6563 Q123.0625,386.7188 123.0625,388.8125 Q123.0625,390.9063 123.75,391.9844 Q124.4375,393.0469 125.7813,393.0469 Q126.4063,393.0469 127,392.7813 Q127.5938,392.5 128.2188,391.9219 L128.2188,394.6406 Z " fill="#000000"/><text fill="#000000" font-family="sans-serif" font-size="12" lengthAdjust="spacingAndGlyphs" textLength="42" x="140.75" y="393.1543">Review</text><line style="stroke:#A80036;stroke-width:1.5;" x1="104.5" x2="191.5" y1="405" y2="405"/><text fill="#000000" font-family="sans-serif" font-size="11" lengthAdjust="spacingAndGlyphs" textLength="77" x="109.5" y="419.2104">name : string</text><line style="stroke:#A80036;stroke-width:1.5;" x1="104.5" x2="191.5" y1="425.8047" y2="425.8047"/><!--MD5=[042fa140da40c49659127f611bcff931]
class Comment--><rect codeLine="13" fill="#FEFECE" filter="url(#f141x6brh26uo4)" height="60.8047" id="Comment" style="stroke:#A80036;stroke-width:1.5;" width="91" x="396.5" y="495"/><ellipse cx="411.5" cy="511" fill="#ADD1B2" rx="11" ry="11" style="stroke:#A80036;stroke-width:1.0;"/><path d="M414.4688,516.6406 Q413.8906,516.9375 413.25,517.0781 Q412.6094,517.2344 411.9063,517.2344 Q409.4063,517.2344 408.0781,515.5938 Q406.7656,513.9375 406.7656,510.8125 Q406.7656,507.6875 408.0781,506.0313 Q409.4063,504.375 411.9063,504.375 Q412.6094,504.375 413.25,504.5313 Q413.9063,504.6875 414.4688,504.9844 L414.4688,507.7031 Q413.8438,507.125 413.25,506.8594 Q412.6563,506.5781 412.0313,506.5781 Q410.6875,506.5781 410,507.6563 Q409.3125,508.7188 409.3125,510.8125 Q409.3125,512.9063 410,513.9844 Q410.6875,515.0469 412.0313,515.0469 Q412.6563,515.0469 413.25,514.7813 Q413.8438,514.5 414.4688,513.9219 L414.4688,516.6406 Z " fill="#000000"/><text fill="#000000" font-family="sans-serif" font-size="12" lengthAdjust="spacingAndGlyphs" textLength="59" x="425.5" y="515.1543">Comment</text><line style="stroke:#A80036;stroke-width:1.5;" x1="397.5" x2="486.5" y1="527" y2="527"/><text fill="#000000" font-family="sans-serif" font-size="11" lengthAdjust="spacingAndGlyphs" textLength="77" x="402.5" y="541.2104">name : string</text><line style="stroke:#A80036;stroke-width:1.5;" x1="397.5" x2="486.5" y1="547.8047" y2="547.8047"/><!--MD5=[3fd616f346a44cd59a91eb10b19e157c]
class User--><rect codeLine="17" fill="#FEFECE" filter="url(#f141x6brh26uo4)" height="60.8047" id="User" style="stroke:#A80036;stroke-width:1.5;" width="89" x="580.5" y="373"/><ellipse cx="608.1" cy="389" fill="#ADD1B2" rx="11" ry="11" style="stroke:#A80036;stroke-width:1.0;"/><path d="M611.0688,394.6406 Q610.4906,394.9375 609.85,395.0781 Q609.2094,395.2344 608.5063,395.2344 Q606.0063,395.2344 604.6781,393.5938 Q603.3656,391.9375 603.3656,388.8125 Q603.3656,385.6875 604.6781,384.0313 Q606.0063,382.375 608.5063,382.375 Q609.2094,382.375 609.85,382.5313 Q610.5063,382.6875 611.0688,382.9844 L611.0688,385.7031 Q610.4438,385.125 609.85,384.8594 Q609.2563,384.5781 608.6313,384.5781 Q607.2875,384.5781 606.6,385.6563 Q605.9125,386.7188 605.9125,388.8125 Q605.9125,390.9063 606.6,391.9844 Q607.2875,393.0469 608.6313,393.0469 Q609.2563,393.0469 609.85,392.7813 Q610.4438,392.5 611.0688,391.9219 L611.0688,394.6406 Z " fill="#000000"/><text fill="#000000" font-family="sans-serif" font-size="12" lengthAdjust="spacingAndGlyphs" textLength="29" x="624.9" y="393.1543">User</text><line style="stroke:#A80036;stroke-width:1.5;" x1="581.5" x2="668.5" y1="405" y2="405"/><text fill="#000000" font-family="sans-serif" font-size="11" lengthAdjust="spacingAndGlyphs" textLength="77" x="586.5" y="419.2104">name : string</text><line style="stroke:#A80036;stroke-width:1.5;" x1="581.5" x2="668.5" y1="425.8047" y2="425.8047"/><!--MD5=[787494ff879e99315e413996e631a796]
class Attribute--><rect codeLine="21" fill="#FEFECE" filter="url(#f141x6brh26uo4)" height="60.8047" id="Attribute" style="stroke:#A80036;stroke-width:1.5;" width="89" x="370.5" y="129"/><ellipse cx="386.4" cy="145" fill="#ADD1B2" rx="11" ry="11" style="stroke:#A80036;stroke-width:1.0;"/><path d="M389.3688,150.6406 Q388.7906,150.9375 388.15,151.0781 Q387.5094,151.2344 386.8063,151.2344 Q384.3063,151.2344 382.9781,149.5938 Q381.6656,147.9375 381.6656,144.8125 Q381.6656,141.6875 382.9781,140.0313 Q384.3063,138.375 386.8063,138.375 Q387.5094,138.375 388.15,138.5313 Q388.8063,138.6875 389.3688,138.9844 L389.3688,141.7031 Q388.7438,141.125 388.15,140.8594 Q387.5563,140.5781 386.9313,140.5781 Q385.5875,140.5781 384.9,141.6563 Q384.2125,142.7188 384.2125,144.8125 Q384.2125,146.9063 384.9,147.9844 Q385.5875,149.0469 386.9313,149.0469 Q387.5563,149.0469 388.15,148.7813 Q388.7438,148.5 389.3688,147.9219 L389.3688,150.6406 Z " fill="#000000"/><text fill="#000000" font-family="sans-serif" font-size="12" lengthAdjust="spacingAndGlyphs" textLength="55" x="400.6" y="149.1543">Attribute</text><line style="stroke:#A80036;stroke-width:1.5;" x1="371.5" x2="458.5" y1="161" y2="161"/><text fill="#000000" font-family="sans-serif" font-size="11" lengthAdjust="spacingAndGlyphs" textLength="77" x="376.5" y="175.2104">name : string</text><line style="stroke:#A80036;stroke-width:1.5;" x1="371.5" x2="458.5" y1="181.8047" y2="181.8047"/><!--MD5=[0b83492021a2ada4b97aa2318f99f432]
class Rate--><rect codeLine="25" fill="#FEFECE" filter="url(#f141x6brh26uo4)" height="60.8047" id="Rate" style="stroke:#A80036;stroke-width:1.5;" width="89" x="201.5" y="251"/><ellipse cx="229.1" cy="267" fill="#ADD1B2" rx="11" ry="11" style="stroke:#A80036;stroke-width:1.0;"/><path d="M232.0688,272.6406 Q231.4906,272.9375 230.85,273.0781 Q230.2094,273.2344 229.5063,273.2344 Q227.0063,273.2344 225.6781,271.5938 Q224.3656,269.9375 224.3656,266.8125 Q224.3656,263.6875 225.6781,262.0313 Q227.0063,260.375 229.5063,260.375 Q230.2094,260.375 230.85,260.5313 Q231.5063,260.6875 232.0688,260.9844 L232.0688,263.7031 Q231.4438,263.125 230.85,262.8594 Q230.2563,262.5781 229.6313,262.5781 Q228.2875,262.5781 227.6,263.6563 Q226.9125,264.7188 226.9125,266.8125 Q226.9125,268.9063 227.6,269.9844 Q228.2875,271.0469 229.6313,271.0469 Q230.2563,271.0469 230.85,270.7813 Q231.4438,270.5 232.0688,269.9219 L232.0688,272.6406 Z " fill="#000000"/><text fill="#000000" font-family="sans-serif" font-size="12" lengthAdjust="spacingAndGlyphs" textLength="29" x="245.9" y="271.1543">Rate</text><line style="stroke:#A80036;stroke-width:1.5;" x1="202.5" x2="289.5" y1="283" y2="283"/><text fill="#000000" font-family="sans-serif" font-size="11" lengthAdjust="spacingAndGlyphs" textLength="77" x="207.5" y="297.2104">name : string</text><line style="stroke:#A80036;stroke-width:1.5;" x1="202.5" x2="289.5" y1="303.8047" y2="303.8047"/><!--MD5=[3949b939274c3ebd79b8ab92605ab7ed]
class DataType--><rect codeLine="29" fill="#FEFECE" filter="url(#f141x6brh26uo4)" height="60.8047" id="DataType" style="stroke:#A80036;stroke-width:1.5;" width="91" x="468.5" y="251"/><ellipse cx="483.5" cy="267" fill="#ADD1B2" rx="11" ry="11" style="stroke:#A80036;stroke-width:1.0;"/><path d="M486.4688,272.6406 Q485.8906,272.9375 485.25,273.0781 Q484.6094,273.2344 483.9063,273.2344 Q481.4063,273.2344 480.0781,271.5938 Q478.7656,269.9375 478.7656,266.8125 Q478.7656,263.6875 480.0781,262.0313 Q481.4063,260.375 483.9063,260.375 Q484.6094,260.375 485.25,260.5313 Q485.9063,260.6875 486.4688,260.9844 L486.4688,263.7031 Q485.8438,263.125 485.25,262.8594 Q484.6563,262.5781 484.0313,262.5781 Q482.6875,262.5781 482,263.6563 Q481.3125,264.7188 481.3125,266.8125 Q481.3125,268.9063 482,269.9844 Q482.6875,271.0469 484.0313,271.0469 Q484.6563,271.0469 485.25,270.7813 Q485.8438,270.5 486.4688,269.9219 L486.4688,272.6406 Z " fill="#000000"/><text fill="#000000" font-family="sans-serif" font-size="12" lengthAdjust="spacingAndGlyphs" textLength="59" x="497.5" y="271.1543">DataType</text><line style="stroke:#A80036;stroke-width:1.5;" x1="469.5" x2="558.5" y1="283" y2="283"/><text fill="#000000" font-family="sans-serif" font-size="11" lengthAdjust="spacingAndGlyphs" textLength="77" x="474.5" y="297.2104">name : string</text><line style="stroke:#A80036;stroke-width:1.5;" x1="469.5" x2="558.5" y1="303.8047" y2="303.8047"/><!--MD5=[ef1ec319197d4459a8bfc4daff0eaeb5]
class ApprovalProcess--><rect codeLine="33" fill="#FEFECE" filter="url(#f141x6brh26uo4)" height="60.8047" id="ApprovalProcess" style="stroke:#A80036;stroke-width:1.5;" width="136" x="142" y="617"/><ellipse cx="157" cy="633" fill="#ADD1B2" rx="11" ry="11" style="stroke:#A80036;stroke-width:1.0;"/><path d="M159.9688,638.6406 Q159.3906,638.9375 158.75,639.0781 Q158.1094,639.2344 157.4063,639.2344 Q154.9063,639.2344 153.5781,637.5938 Q152.2656,635.9375 152.2656,632.8125 Q152.2656,629.6875 153.5781,628.0313 Q154.9063,626.375 157.4063,626.375 Q158.1094,626.375 158.75,626.5313 Q159.4063,626.6875 159.9688,626.9844 L159.9688,629.7031 Q159.3438,629.125 158.75,628.8594 Q158.1563,628.5781 157.5313,628.5781 Q156.1875,628.5781 155.5,629.6563 Q154.8125,630.7188 154.8125,632.8125 Q154.8125,634.9063 155.5,635.9844 Q156.1875,637.0469 157.5313,637.0469 Q158.1563,637.0469 158.75,636.7813 Q159.3438,636.5 159.9688,635.9219 L159.9688,638.6406 Z " fill="#000000"/><text fill="#000000" font-family="sans-serif" font-size="12" lengthAdjust="spacingAndGlyphs" textLength="104" x="171" y="637.1543">ApprovalProcess</text><line style="stroke:#A80036;stroke-width:1.5;" x1="143" x2="277" y1="649" y2="649"/><text fill="#000000" font-family="sans-serif" font-size="11" lengthAdjust="spacingAndGlyphs" textLength="77" x="148" y="663.2104">name : string</text><line style="stroke:#A80036;stroke-width:1.5;" x1="143" x2="277" y1="669.8047" y2="669.8047"/><!--MD5=[c872693b97029049fb0946a052447e90]
class ApprovalStart--><rect codeLine="37" fill="#FEFECE" filter="url(#f141x6brh26uo4)" height="60.8047" id="ApprovalStart" style="stroke:#A80036;stroke-width:1.5;" width="117" x="243.5" y="739"/><ellipse cx="258.5" cy="755" fill="#ADD1B2" rx="11" ry="11" style="stroke:#A80036;stroke-width:1.0;"/><path d="M261.4688,760.6406 Q260.8906,760.9375 260.25,761.0781 Q259.6094,761.2344 258.9063,761.2344 Q256.4063,761.2344 255.0781,759.5938 Q253.7656,757.9375 253.7656,754.8125 Q253.7656,751.6875 255.0781,750.0313 Q256.4063,748.375 258.9063,748.375 Q259.6094,748.375 260.25,748.5313 Q260.9063,748.6875 261.4688,748.9844 L261.4688,751.7031 Q260.8438,751.125 260.25,750.8594 Q259.6563,750.5781 259.0313,750.5781 Q257.6875,750.5781 257,751.6563 Q256.3125,752.7188 256.3125,754.8125 Q256.3125,756.9063 257,757.9844 Q257.6875,759.0469 259.0313,759.0469 Q259.6563,759.0469 260.25,758.7813 Q260.8438,758.5 261.4688,757.9219 L261.4688,760.6406 Z " fill="#000000"/><text fill="#000000" font-family="sans-serif" font-size="12" lengthAdjust="spacingAndGlyphs" textLength="85" x="272.5" y="759.1543">ApprovalStart</text><line style="stroke:#A80036;stroke-width:1.5;" x1="244.5" x2="359.5" y1="771" y2="771"/><text fill="#000000" font-family="sans-serif" font-size="11" lengthAdjust="spacingAndGlyphs" textLength="77" x="249.5" y="785.2104">name : string</text><line style="stroke:#A80036;stroke-width:1.5;" x1="244.5" x2="359.5" y1="791.8047" y2="791.8047"/><!--MD5=[cf10128234ff8da099eb4295602d2d77]
class ApprovalStep--><rect codeLine="41" fill="#FEFECE" filter="url(#f141x6brh26uo4)" height="60.8047" id="ApprovalStep" style="stroke:#A80036;stroke-width:1.5;" width="115" x="152.5" y="861"/><ellipse cx="167.5" cy="877" fill="#ADD1B2" rx="11" ry="11" style="stroke:#A80036;stroke-width:1.0;"/><path d="M170.4688,882.6406 Q169.8906,882.9375 169.25,883.0781 Q168.6094,883.2344 167.9063,883.2344 Q165.4063,883.2344 164.0781,881.5938 Q162.7656,879.9375 162.7656,876.8125 Q162.7656,873.6875 164.0781,872.0313 Q165.4063,870.375 167.9063,870.375 Q168.6094,870.375 169.25,870.5313 Q169.9063,870.6875 170.4688,870.9844 L170.4688,873.7031 Q169.8438,873.125 169.25,872.8594 Q168.6563,872.5781 168.0313,872.5781 Q166.6875,872.5781 166,873.6563 Q165.3125,874.7188 165.3125,876.8125 Q165.3125,878.9063 166,879.9844 Q166.6875,881.0469 168.0313,881.0469 Q168.6563,881.0469 169.25,880.7813 Q169.8438,880.5 170.4688,879.9219 L170.4688,882.6406 Z " fill="#000000"/><text fill="#000000" font-family="sans-serif" font-size="12" lengthAdjust="spacingAndGlyphs" textLength="83" x="181.5" y="881.1543">ApprovalStep</text><line style="stroke:#A80036;stroke-width:1.5;" x1="153.5" x2="266.5" y1="893" y2="893"/><text fill="#000000" font-family="sans-serif" font-size="11" lengthAdjust="spacingAndGlyphs" textLength="77" x="158.5" y="907.2104">name : string</text><line style="stroke:#A80036;stroke-width:1.5;" x1="153.5" x2="266.5" y1="913.8047" y2="913.8047"/><!--MD5=[2e60b85283eec68fb985af438b76834e]
reverse link Model to User--><path codeLine="45" d="M619.5085,57.8378 C637.2596,67.2018 654.8564,80.2742 665,98 C719.0833,192.5092 697.9498,238.9029 666,343 C662.7983,353.4315 657.1207,363.6821 650.9921,372.6959 " fill="none" id="Model-backto-User" style="stroke:#A80036;stroke-width:1.0;"/><polygon fill="#A80036" points="607.5924,52.0724,611.2513,58.2863,618.3945,57.2988,614.7356,51.0849,607.5924,52.0724" style="stroke:#A80036;stroke-width:1.0;"/><text fill="#000000" font-family="sans-serif" font-size="13" lengthAdjust="spacingAndGlyphs" textLength="8" x="615.6405" y="67.8222">1</text><text fill="#000000" font-family="sans-serif" font-size="13" lengthAdjust="spacingAndGlyphs" textLength="23" x="630.9811" y="361.8964">1..*</text><!--MD5=[f9a668f397a92638375c90a44f2d8312]
reverse link Model to Item--><path codeLine="46" d="M578.1033,80.5135 C595.2434,137.1808 616.0941,238.2754 577,312 C558.0319,347.7705 518.1311,372.1292 486.6019,386.6637 " fill="none" id="Model-backto-Item" style="stroke:#A80036;stroke-width:1.0;"/><polygon fill="#A80036" points="574.1956,68.1138,572.1841,75.0387,577.8026,79.5589,579.8141,72.634,574.1956,68.1138" style="stroke:#A80036;stroke-width:1.0;"/><text fill="#000000" font-family="sans-serif" font-size="13" lengthAdjust="spacingAndGlyphs" textLength="8" x="567.6797" y="88.0755">1</text><text fill="#000000" font-family="sans-serif" font-size="13" lengthAdjust="spacingAndGlyphs" textLength="8" x="494.6516" y="379.7271">1</text><!--MD5=[43e140410895639698f1b8ad57b34722]
reverse link Model to Comment--><path codeLine="47" d="M620.5031,51.8642 C697.8997,72.9106 826,114.5364 826,159.5 C826,159.5 826,159.5 826,403.5 C826,473.8002 589.2754,508.9165 487.5578,520.7606 " fill="none" id="Model-backto-Comment" style="stroke:#A80036;stroke-width:1.0;"/><polygon fill="#A80036" points="607.6144,48.4215,612.3789,53.8344,619.2079,51.5183,614.4434,46.1054,607.6144,48.4215" style="stroke:#A80036;stroke-width:1.0;"/><text fill="#000000" font-family="sans-serif" font-size="13" lengthAdjust="spacingAndGlyphs" textLength="8" x="615.3623" y="46.0598">1</text><text fill="#000000" font-family="sans-serif" font-size="13" lengthAdjust="spacingAndGlyphs" textLength="24" x="495.6519" y="516.1294">0..1</text><!--MD5=[d8b9983ad2ec8350ed50c4f704446dfb]
reverse link Model to Rate--><path codeLine="48" d="M505.6925,53.0681 C460.6691,67.3867 398.2285,92.0544 353,129 C311.4204,162.965 278.7739,217.0035 260.9585,250.8014 " fill="none" id="Model-backto-Rate" style="stroke:#A80036;stroke-width:1.0;"/><polygon fill="#A80036" points="518.1917,49.2154,511.2797,47.1602,506.7241,52.7501,513.6361,54.8053,518.1917,49.2154" style="stroke:#A80036;stroke-width:1.0;"/><text fill="#000000" font-family="sans-serif" font-size="13" lengthAdjust="spacingAndGlyphs" textLength="8" x="502.4129" y="64.3709">1</text><text fill="#000000" font-family="sans-serif" font-size="13" lengthAdjust="spacingAndGlyphs" textLength="24" x="237.5687" y="240.0237">0..1</text><!--MD5=[7fe6c205a3347b741e2f6f2d6f731246]
reverse link Model to Review--><path codeLine="49" d="M505.154,45.7209 C407.7555,63.1777 214.9995,114.2345 147,251 C127.8455,289.5249 133.4112,340.5876 140.0319,372.7483 " fill="none" id="Model-backto-Review" style="stroke:#A80036;stroke-width:1.0;"/><polygon fill="#A80036" points="518.2416,43.4753,511.6515,40.5476,506.4145,45.5048,513.0045,48.4324,518.2416,43.4753" style="stroke:#A80036;stroke-width:1.0;"/><text fill="#000000" font-family="sans-serif" font-size="13" lengthAdjust="spacingAndGlyphs" textLength="8" x="502.4707" y="40.3253">1</text><text fill="#000000" font-family="sans-serif" font-size="13" lengthAdjust="spacingAndGlyphs" textLength="24" x="111.9135" y="361.9596">0..1</text><!--MD5=[9dc14d467acb42176f5f52b88ce1617d]
reverse link Model to Attribute--><path codeLine="50" d="M515.5452,76.6181 C494.9979,93.5558 471.303,113.0881 452.0781,128.9356 " fill="none" id="Model-backto-Attribute" style="stroke:#A80036;stroke-width:1.0;"/><polygon fill="#A80036" points="525.6534,68.2858,518.4793,69.0157,516.3938,75.9187,523.5679,75.1887,525.6534,68.2858" style="stroke:#A80036;stroke-width:1.0;"/><text fill="#000000" font-family="sans-serif" font-size="13" lengthAdjust="spacingAndGlyphs" textLength="8" x="509.5133" y="87.9225">1</text><text fill="#000000" font-family="sans-serif" font-size="13" lengthAdjust="spacingAndGlyphs" textLength="23" x="434.6733" y="117.7118">1..*</text><!--MD5=[1a9aec819ee5fbf9b21abb907cbb1086]
reverse link Model to DataType--><path codeLine="51" d="M619.3831,60.4647 C633.769,70.1628 643.9607,82.9787 639,99 C620.4281,158.9803 574.5912,216.7872 543.8916,250.7308 " fill="none" id="Model-backto-DataType" style="stroke:#A80036;stroke-width:1.0;"/><polygon fill="#A80036" points="607.746,53.6549,610.9042,60.1376,618.103,59.7157,614.9447,53.2329,607.746,53.6549" style="stroke:#A80036;stroke-width:1.0;"/><text fill="#000000" font-family="sans-serif" font-size="13" lengthAdjust="spacingAndGlyphs" textLength="8" x="615.5149" y="52.1273">1</text><text fill="#000000" font-family="sans-serif" font-size="13" lengthAdjust="spacingAndGlyphs" textLength="23" x="524.6849" y="239.9385">1..*</text><!--MD5=[b3c85eaeb4ece52e2400568095afe7c8]
reverse link Model to ApprovalProcess--><path codeLine="52" d="M505.2612,44.0832 C362.7956,61.1039 6,108.7927 6,159.5 C6,159.5 6,159.5 6,525.5 C6,590.1859 82.4831,621.3967 141.7873,635.8745 " fill="none" id="Model-backto-ApprovalProcess" style="stroke:#A80036;stroke-width:1.0;"/><polygon fill="#A80036" points="518.3599,42.5327,511.9313,39.2657,506.4431,43.9433,512.8717,47.2103,518.3599,42.5327" style="stroke:#A80036;stroke-width:1.0;"/><text fill="#000000" font-family="sans-serif" font-size="13" lengthAdjust="spacingAndGlyphs" textLength="8" x="502.6079" y="56.6231">1</text><text fill="#000000" font-family="sans-serif" font-size="13" lengthAdjust="spacingAndGlyphs" textLength="7" x="126.9437" y="630.8675">*</text><!--MD5=[a041350865f18e43befd5d46367f2ff2]
reverse link Attribute to DataType--><path codeLine="54" d="M448.4149,200.678 C461.6986,217.0478 476.7163,235.5545 489.0261,250.7241 " fill="none" id="Attribute-backto-DataType" style="stroke:#A80036;stroke-width:1.0;"/><polygon fill="#FFFFFF" points="439.9819,190.2858,440.6565,197.4653,447.5432,199.6039,446.8686,192.4244,439.9819,190.2858" style="stroke:#A80036;stroke-width:1.0;"/><text fill="#000000" font-family="sans-serif" font-size="13" lengthAdjust="spacingAndGlyphs" textLength="23" x="447.1643" y="209.9225">1..*</text><text fill="#000000" font-family="sans-serif" font-size="13" lengthAdjust="spacingAndGlyphs" textLength="8" x="475.0502" y="239.9304">1</text><!--MD5=[034235236d667549a06a16eb6a3158fd]
link Attribute to User--><path codeLine="55" d="M459.7974,177.9837 C494.4739,193.8091 542.2834,219.0815 577,251 C613.0267,284.1231 624.5824,295.2326 639,342 C640.7718,347.7472 641.1389,353.859 640.6226,359.9145 " fill="none" id="Attribute-to-User" style="stroke:#A80036;stroke-width:1.0;"/><polygon fill="#FFFFFF" points="638.2835,372.9176,643.2826,367.7206,640.4082,361.1072,635.409,366.3042,638.2835,372.9176" style="stroke:#A80036;stroke-width:1.0;"/><text fill="#000000" font-family="sans-serif" font-size="13" lengthAdjust="spacingAndGlyphs" textLength="23" x="467.3624" y="176.5486">1..*</text><text fill="#000000" font-family="sans-serif" font-size="13" lengthAdjust="spacingAndGlyphs" textLength="7" x="633.3013" y="362.1638">*</text><!--MD5=[69f3268c82db819d9f8bc8df002f412f]
link Attribute to Item--><path codeLine="56" d="M418.4196,190.4028 C423.1668,233.3038 431.7778,311.122 437.1765,359.9103 " fill="none" id="Attribute-to-Item" style="stroke:#A80036;stroke-width:1.0;"/><polygon fill="#FFFFFF" points="438.6082,372.8481,441.924,366.4445,437.2883,360.9209,433.9725,367.3245,438.6082,372.8481" style="stroke:#A80036;stroke-width:1.0;"/><text fill="#000000" font-family="sans-serif" font-size="13" lengthAdjust="spacingAndGlyphs" textLength="23" x="393.8793" y="209.8215">1..*</text><text fill="#000000" font-family="sans-serif" font-size="13" lengthAdjust="spacingAndGlyphs" textLength="7" x="430.1868" y="362.08">*</text><!--MD5=[579f5857d941115fe56df36b93d66401]
link Attribute to Review--><path codeLine="57" d="M370.0783,164.8335 C317.5772,173.5052 231.8105,195.683 184,251 C158.0469,281.0279 149.983,326.3617 147.8473,359.802 " fill="none" id="Attribute-to-Review" style="stroke:#A80036;stroke-width:1.0;"/><polygon fill="#FFFFFF" points="147.2709,372.8756,151.5313,367.0576,147.7996,360.8873,143.5391,366.7052,147.2709,372.8756" style="stroke:#A80036;stroke-width:1.0;"/><text fill="#000000" font-family="sans-serif" font-size="13" lengthAdjust="spacingAndGlyphs" textLength="23" x="339.4966" y="161.6313">1..*</text><text fill="#000000" font-family="sans-serif" font-size="13" lengthAdjust="spacingAndGlyphs" textLength="7" x="139.3986" y="362.1132">*</text><!--MD5=[cddba2c241aabe3ce0c5378acbd52a5e]
link Attribute to Comment--><path codeLine="58" d="M402.8495,190.2704 C384.3028,241.8049 353.7132,348.3444 380,434 C385.4731,451.8341 395.7308,469.3188 406.3498,484.1475 " fill="none" id="Attribute-to-Comment" style="stroke:#A80036;stroke-width:1.0;"/><polygon fill="#FFFFFF" points="414.4673,494.9311,414.0546,487.7318,407.2503,485.3438,407.6631,492.5431,414.4673,494.9311" style="stroke:#A80036;stroke-width:1.0;"/><text fill="#000000" font-family="sans-serif" font-size="13" lengthAdjust="spacingAndGlyphs" textLength="23" x="375.1933" y="209.9041">1..*</text><text fill="#000000" font-family="sans-serif" font-size="13" lengthAdjust="spacingAndGlyphs" textLength="7" x="400.6789" y="483.7063">*</text><!--MD5=[ade025d5eceaef5556a09521bd2a0d55]
link Attribute to Rate--><path codeLine="59" d="M370.1428,185.5533 C353.414,195.765 334.4907,207.9184 318,220 C308.654,226.8472 298.997,234.5853 289.9086,242.205 " fill="none" id="Attribute-to-Rate" style="stroke:#A80036;stroke-width:1.0;"/><polygon fill="#FFFFFF" points="279.936,250.7037,287.0972,249.8564,289.0694,242.9203,281.9082,243.7675,279.936,250.7037" style="stroke:#A80036;stroke-width:1.0;"/><text fill="#000000" font-family="sans-serif" font-size="13" lengthAdjust="spacingAndGlyphs" textLength="23" x="339.5698" y="185.1353">1..*</text><text fill="#000000" font-family="sans-serif" font-size="13" lengthAdjust="spacingAndGlyphs" textLength="7" x="279.2134" y="239.9058">*</text><!--MD5=[a80bfc00650f64430ca4234b79573d79]
link Item to Comment--><path codeLine="61" d="M442,434.2858 C442,448.5899 442,465.8596 442,481.5066 " fill="none" id="Item-to-Comment" style="stroke:#A80036;stroke-width:1.0;"/><polygon fill="#FFFFFF" points="442,494.7241,446,488.7241,442,482.7241,438,488.7241,442,494.7241" style="stroke:#A80036;stroke-width:1.0;"/><text fill="#000000" font-family="sans-serif" font-size="13" lengthAdjust="spacingAndGlyphs" textLength="8" x="433.2125" y="453.9225">1</text><text fill="#000000" font-family="sans-serif" font-size="13" lengthAdjust="spacingAndGlyphs" textLength="24" x="415.525" y="483.9304">0..1</text><!--MD5=[2dd21c5e4d24a00e804d12dd0c7b0d9f]
link User to Comment--><path codeLine="62" d="M580.2332,433.3446 C555.6049,449.7634 524.802,470.2987 498.5278,487.8148 " fill="none" id="User-to-Comment" style="stroke:#A80036;stroke-width:1.0;"/><polygon fill="#FFFFFF" points="487.5759,495.1161,494.787,495.1161,497.5605,488.4597,490.3494,488.4597,487.5759,495.1161" style="stroke:#A80036;stroke-width:1.0;"/><text fill="#000000" font-family="sans-serif" font-size="13" lengthAdjust="spacingAndGlyphs" textLength="7" x="565.5407" y="433.9988">*</text><text fill="#000000" font-family="sans-serif" font-size="13" lengthAdjust="spacingAndGlyphs" textLength="24" x="495.6725" y="486.8786">0..1</text><!--MD5=[41e2cc0abebbdef395f82d9d5c458c3d]
reverse link Comment to ApprovalProcess--><path codeLine="64" d="M384.8239,555.5667 C349.3561,574.2179 303.9109,598.1158 268.2451,616.8711 " fill="none" id="Comment-backto-ApprovalProcess" style="stroke:#A80036;stroke-width:1.0;"/><polygon fill="#FFFFFF" points="396.4411,549.4577,389.2689,548.71,385.8201,555.0429,392.9924,555.7906,396.4411,549.4577" style="stroke:#A80036;stroke-width:1.0;"/><text fill="#000000" font-family="sans-serif" font-size="13" lengthAdjust="spacingAndGlyphs" textLength="24" x="364.3469" y="548.862">0..1</text><text fill="#000000" font-family="sans-serif" font-size="13" lengthAdjust="spacingAndGlyphs" textLength="24" x="253.7832" y="606.1077">0..1</text><!--MD5=[13fb3c08d04474531261c86a5cae5a91]
reverse link Review to ApprovalProcess--><path codeLine="66" d="M159.0692,447.0628 C171.49,495.9446 191.3218,573.9923 202.2114,616.8481 " fill="none" id="Review-backto-ApprovalProcess" style="stroke:#A80036;stroke-width:1.0;"/><polygon fill="#FFFFFF" points="155.8523,434.4028,153.4532,441.2031,158.8076,446.0332,161.2068,439.2329,155.8523,434.4028" style="stroke:#A80036;stroke-width:1.0;"/><text fill="#000000" font-family="sans-serif" font-size="13" lengthAdjust="spacingAndGlyphs" textLength="24" x="131.0616" y="453.8215">0..1</text><text fill="#000000" font-family="sans-serif" font-size="13" lengthAdjust="spacingAndGlyphs" textLength="24" x="174.13" y="606.08">0..1</text><!--MD5=[a3651ad847046aa6edbc8c7a08304f59]
reverse link Rate to User--><path codeLine="68" d="M303.1623,299.9005 C378.9998,324.3126 511.3071,366.9023 580.2857,389.1065 " fill="none" id="Rate-backto-User" style="stroke:#A80036;stroke-width:1.0;"/><polygon fill="#FFFFFF" points="290.5906,295.8537,295.0763,301.4998,302.0134,299.5307,297.5277,293.8846,290.5906,295.8537" style="stroke:#A80036;stroke-width:1.0;"/><text fill="#000000" font-family="sans-serif" font-size="13" lengthAdjust="spacingAndGlyphs" textLength="24" x="298.5487" y="293.9075">0..1</text><text fill="#000000" font-family="sans-serif" font-size="13" lengthAdjust="spacingAndGlyphs" textLength="7" x="565.6015" y="382.7103">*</text><!--MD5=[b3a6ef802c4473fc34417efadb971298]
reverse link Rate to Item--><path codeLine="69" d="M302.1787,316.4684 C332.347,335.2466 369.0235,358.0759 397.2429,375.641 " fill="none" id="Rate-backto-Item" style="stroke:#A80036;stroke-width:1.0;"/><polygon fill="#FFFFFF" points="290.9664,309.4893,293.9465,316.0558,301.1541,315.8305,298.174,309.264,290.9664,309.4893" style="stroke:#A80036;stroke-width:1.0;"/><text fill="#000000" font-family="sans-serif" font-size="13" lengthAdjust="spacingAndGlyphs" textLength="24" x="298.6213" y="309.3315">0..1</text><text fill="#000000" font-family="sans-serif" font-size="13" lengthAdjust="spacingAndGlyphs" textLength="8" x="381.4722" y="367.0987">1</text><!--MD5=[2c39ece8b939867e074150a3ea8641cf]
reverse link Rate to Review--><path codeLine="70" d="M212.9226,322.678 C199.7731,339.0478 184.9071,357.5545 172.7216,372.7241 " fill="none" id="Rate-backto-Review" style="stroke:#A80036;stroke-width:1.0;"/><polygon fill="#FFFFFF" points="221.2705,312.2858,214.3945,314.4585,213.7554,321.6412,220.6314,319.4685,221.2705,312.2858" style="stroke:#A80036;stroke-width:1.0;"/><text fill="#000000" font-family="sans-serif" font-size="13" lengthAdjust="spacingAndGlyphs" textLength="8" x="207.6144" y="331.9225">1</text><text fill="#000000" font-family="sans-serif" font-size="13" lengthAdjust="spacingAndGlyphs" textLength="24" x="151.3454" y="361.9304">0..1</text><!--MD5=[75a4899795fb10249ced8eb499517298]
reverse link Rate to ApprovalProcess--><path codeLine="71" d="M243.747,325.7239 C240.402,385.2688 233.1721,494.438 221,587 C219.7195,596.7378 217.9386,607.2901 216.1825,616.8139 " fill="none" id="Rate-backto-ApprovalProcess" style="stroke:#A80036;stroke-width:1.0;"/><polygon fill="#FFFFFF" points="244.4772,312.3939,240.155,318.1662,243.8209,324.3759,248.1431,318.6037,244.4772,312.3939" style="stroke:#A80036;stroke-width:1.0;"/><text fill="#000000" font-family="sans-serif" font-size="13" lengthAdjust="spacingAndGlyphs" textLength="24" x="246.4744" y="331.8109">0..1</text><text fill="#000000" font-family="sans-serif" font-size="13" lengthAdjust="spacingAndGlyphs" textLength="24" x="219.9326" y="606.0387">0..1</text><!--MD5=[0c484a00d3c62c74d6f2e1fe52030c96]
reverse link ApprovalProcess to ApprovalStart--><path codeLine="73" d="M241.0522,688.678 C253.3967,705.0478 267.3525,723.5545 278.7919,738.7241 " fill="none" id="ApprovalProcess-backto-ApprovalStart" style="stroke:#A80036;stroke-width:1.0;"/><polygon fill="#A80036" points="233.2155,678.2858,233.6344,685.4847,240.4406,687.8669,240.0218,680.668,233.2155,678.2858" style="stroke:#A80036;stroke-width:1.0;"/><text fill="#000000" font-family="sans-serif" font-size="13" lengthAdjust="spacingAndGlyphs" textLength="8" x="228.9986" y="697.9225">1</text><text fill="#000000" font-family="sans-serif" font-size="13" lengthAdjust="spacingAndGlyphs" textLength="8" x="265.1802" y="727.9304">1</text><!--MD5=[92d2369c3019c787a53538103d7738e5]
reverse link ApprovalProcess to ApprovalStep--><path codeLine="74" d="M210,691.6897 C210,740.6096 210,818.1751 210,860.8481 " fill="none" id="ApprovalProcess-backto-ApprovalStep" style="stroke:#A80036;stroke-width:1.0;"/><polygon fill="#A80036" points="210,678.4028,206,684.4028,210,690.4028,214,684.4028,210,678.4028" style="stroke:#A80036;stroke-width:1.0;"/><text fill="#000000" font-family="sans-serif" font-size="13" lengthAdjust="spacingAndGlyphs" textLength="8" x="201.2375" y="697.8215">1</text><text fill="#000000" font-family="sans-serif" font-size="13" lengthAdjust="spacingAndGlyphs" textLength="23" x="184.6281" y="850.08">1..*</text><!--MD5=[8d71824d43be9671b9ce3e21bb39113b]
reverse link ApprovalStart to ApprovalStep--><path codeLine="76" d="M270.9478,810.678 C258.6033,827.0478 244.6475,845.5545 233.2081,860.7241 " fill="none" id="ApprovalStart-backto-ApprovalStep" style="stroke:#A80036;stroke-width:1.0;"/><polygon fill="#FFFFFF" points="278.7845,800.2858,271.9782,802.668,271.5594,809.8669,278.3656,807.4847,278.7845,800.2858" style="stroke:#A80036;stroke-width:1.0;"/><text fill="#000000" font-family="sans-serif" font-size="13" lengthAdjust="spacingAndGlyphs" textLength="24" x="247.8514" y="819.9225">0..1</text><text fill="#000000" font-family="sans-serif" font-size="13" lengthAdjust="spacingAndGlyphs" textLength="8" x="229.1698" y="849.9304">1</text><!--MD5=[f824c7c0ce39498328fe4dbcfbda7523]
reverse link ApprovalStep to ApprovalStep--><path codeLine="78" d="M280.9715,886.2049 C293.6465,886.8932 302.5,888.6582 302.5,891.5 C302.5,895.25 287.0833,897.125 267.8125,897.125 " fill="none" id="ApprovalStep-backto-ApprovalStep" style="stroke:#A80036;stroke-width:1.0;"/><polygon fill="#FFFFFF" points="267.8125,885.875,273.7103,890.0242,279.8087,886.1759,273.9109,882.0267,267.8125,885.875" style="stroke:#A80036;stroke-width:1.0;"/><text fill="#000000" font-family="sans-serif" font-size="13" lengthAdjust="spacingAndGlyphs" textLength="39" x="308.5" y="896.0669">failure</text><text fill="#000000" font-family="sans-serif" font-size="13" lengthAdjust="spacingAndGlyphs" textLength="7" x="275.6682" y="881.2813">*</text><text fill="#000000" font-family="sans-serif" font-size="13" lengthAdjust="spacingAndGlyphs" textLength="24" x="275.4482" y="910.6454">0..1</text><!--MD5=[f824c7c0ce39498328fe4dbcfbda7523]
reverse link ApprovalStep to ApprovalStep--><path codeLine="79" d="M281.016,880.6047 C318.4868,879.0365 353.5,882.6683 353.5,891.5 C353.5,901.373 309.7436,904.7476 267.713,901.6237 " fill="none" id="ApprovalStep-backto-ApprovalStep-1" style="stroke:#A80036;stroke-width:1.0;"/><polygon fill="#FFFFFF" points="267.713,881.3763,273.9346,885.0221,279.6929,880.6814,273.4713,877.0355,267.713,881.3763" style="stroke:#A80036;stroke-width:1.0;"/><text fill="#000000" font-family="sans-serif" font-size="13" lengthAdjust="spacingAndGlyphs" textLength="51" x="359.5" y="896.0669">success</text><text fill="#000000" font-family="sans-serif" font-size="13" lengthAdjust="spacingAndGlyphs" textLength="7" x="275.5559" y="893.1281">*</text><text fill="#000000" font-family="sans-serif" font-size="13" lengthAdjust="spacingAndGlyphs" textLength="24" x="275.3379" y="898.9955">0..1</text><!--MD5=[f93ebd4166599fa6942b14ded36b7bab]
@startuml
class Model {
  name : string
}

class Item{
  name : string
}

class Review{
  name : string
}

class Comment{
  name : string
}

class User{
  name : string
}

class Attribute{
  name : string
}

class Rate{
  name : string
}

class DataType{
  name : string
}

class ApprovalProcess{
  name : string
}

class ApprovalStart{
  name : string
}

class ApprovalStep{
  name : string
}

Model "1" *- - "1..*" User
Model "1" *- - "1" Item
Model "1" *- - "0..1" Comment
Model "1" *- - "0..1" Rate
Model "1" *- - "0..1" Review
Model "1" *- - "1..*" Attribute
Model "1" *- - "1..*" DataType
Model "1" *- - "*" ApprovalProcess

Attribute "1..*" o- - "1" DataType
Attribute "1..*" - -o "*" User
Attribute "1..*" - -o "*" Item
Attribute "1..*" - -o "*" Review
Attribute "1..*" - -o "*" Comment
Attribute "1..*" - -o "*" Rate

Item "1" - -o "0..1" Comment
User "*" - -o "0..1" Comment

Comment "0..1" o- - "0..1" ApprovalProcess

Review "0..1" o- - "0..1" ApprovalProcess

Rate "0..1" o- - "*" User
Rate "0..1" o- - "1" Item
Rate "1" o- - "0..1" Review
Rate "0..1" o- - "0..1" ApprovalProcess

ApprovalProcess "1" *- - "1" ApprovalStart
ApprovalProcess "1" *- - "1..*" ApprovalStep

ApprovalStart "0..1" o- - "1" ApprovalStep

ApprovalStep "*" o- - "0..1" ApprovalStep : "failure"
ApprovalStep "*" o- - "0..1" ApprovalStep : "success"
@enduml

PlantUML version 1.2020.22(Sun Dec 06 09:36:27 UTC 2020)
(GPL source distribution)
Java Runtime: OpenJDK Runtime Environment
JVM: OpenJDK 64-Bit Server VM
Default Encoding: UTF-8
Language: en
Country: US
--></g></svg>