<?xml version="1.0" encoding="UTF-8" standalone="no"?><svg xmlns="http://www.w3.org/2000/svg" xmlns:xlink="http://www.w3.org/1999/xlink" contentScriptType="application/ecmascript" contentStyleType="text/css" height="220px" preserveAspectRatio="none" style="width:750px;height:220px;" version="1.1" viewBox="0 0 750 220" width="750px" zoomAndPan="magnify"><defs><filter height="300%" id="fwm5tvsw057bd" width="300%" x="-1" y="-1"><feGaussianBlur result="blurOut" stdDeviation="2.0"/><feColorMatrix in="blurOut" result="blurOut2" type="matrix" values="0 0 0 0 0 0 0 0 0 0 0 0 0 0 0 0 0 0 .4 0"/><feOffset dx="4.0" dy="4.0" in="blurOut2" result="blurOut3"/><feBlend in="SourceGraphic" in2="blurOut3" mode="normal"/></filter></defs><g><!--MD5=[003718b22fee2486eeba0fa029a176b7]
class OrderItem--><rect fill="#FEFECE" filter="url(#fwm5tvsw057bd)" height="48" id="OrderItem" style="stroke: #A80036; stroke-width: 1.5;" width="94" x="536.5" y="53"/><ellipse cx="551.5" cy="69" fill="#ADD1B2" rx="11" ry="11" style="stroke: #A80036; stroke-width: 1.0;"/><path d="M554.4688,74.6406 Q553.8906,74.9375 553.25,75.0859 Q552.6094,75.2344 551.9063,75.2344 Q549.4063,75.2344 548.0859,73.5859 Q546.7656,71.9375 546.7656,68.8125 Q546.7656,65.6875 548.0859,64.0313 Q549.4063,62.375 551.9063,62.375 Q552.6094,62.375 553.2578,62.5313 Q553.9063,62.6875 554.4688,62.9844 L554.4688,65.7031 Q553.8438,65.125 553.25,64.8516 Q552.6563,64.5781 552.0313,64.5781 Q550.6875,64.5781 550,65.6484 Q549.3125,66.7188 549.3125,68.8125 Q549.3125,70.9063 550,71.9766 Q550.6875,73.0469 552.0313,73.0469 Q552.6563,73.0469 553.25,72.7734 Q553.8438,72.5 554.4688,71.9219 L554.4688,74.6406 Z "/><text fill="#000000" font-family="sans-serif" font-size="12" lengthAdjust="spacingAndGlyphs" textLength="62" x="565.5" y="73.1543">OrderItem</text><line style="stroke: #A80036; stroke-width: 1.5;" x1="537.5" x2="629.5" y1="85" y2="85"/><line style="stroke: #A80036; stroke-width: 1.5;" x1="537.5" x2="629.5" y1="93" y2="93"/><!--MD5=[3fd616f346a44cd59a91eb10b19e157c]
class User--><rect fill="#FEFECE" filter="url(#fwm5tvsw057bd)" height="48" id="User" style="stroke: #A80036; stroke-width: 1.5;" width="61" x="565" y="161"/><ellipse cx="580" cy="177" fill="#ADD1B2" rx="11" ry="11" style="stroke: #A80036; stroke-width: 1.0;"/><path d="M582.9688,182.6406 Q582.3906,182.9375 581.75,183.0859 Q581.1094,183.2344 580.4063,183.2344 Q577.9063,183.2344 576.5859,181.5859 Q575.2656,179.9375 575.2656,176.8125 Q575.2656,173.6875 576.5859,172.0313 Q577.9063,170.375 580.4063,170.375 Q581.1094,170.375 581.7578,170.5313 Q582.4063,170.6875 582.9688,170.9844 L582.9688,173.7031 Q582.3438,173.125 581.75,172.8516 Q581.1563,172.5781 580.5313,172.5781 Q579.1875,172.5781 578.5,173.6484 Q577.8125,174.7188 577.8125,176.8125 Q577.8125,178.9063 578.5,179.9766 Q579.1875,181.0469 580.5313,181.0469 Q581.1563,181.0469 581.75,180.7734 Q582.3438,180.5 582.9688,179.9219 L582.9688,182.6406 Z "/><text fill="#000000" font-family="sans-serif" font-size="12" lengthAdjust="spacingAndGlyphs" textLength="29" x="594" y="181.1543">User</text><line style="stroke: #A80036; stroke-width: 1.5;" x1="566" x2="625" y1="193" y2="193"/><line style="stroke: #A80036; stroke-width: 1.5;" x1="566" x2="625" y1="201" y2="201"/><!--MD5=[44a1b4afaef76c16e6c9ec4990ad0c8d]
class Item--><rect fill="#FEFECE" filter="url(#fwm5tvsw057bd)" height="48" id="Item" style="stroke: #A80036; stroke-width: 1.5;" width="59" x="667" y="161"/><ellipse cx="682" cy="177" fill="#ADD1B2" rx="11" ry="11" style="stroke: #A80036; stroke-width: 1.0;"/><path d="M684.9688,182.6406 Q684.3906,182.9375 683.75,183.0859 Q683.1094,183.2344 682.4063,183.2344 Q679.9063,183.2344 678.5859,181.5859 Q677.2656,179.9375 677.2656,176.8125 Q677.2656,173.6875 678.5859,172.0313 Q679.9063,170.375 682.4063,170.375 Q683.1094,170.375 683.7578,170.5313 Q684.4063,170.6875 684.9688,170.9844 L684.9688,173.7031 Q684.3438,173.125 683.75,172.8516 Q683.1563,172.5781 682.5313,172.5781 Q681.1875,172.5781 680.5,173.6484 Q679.8125,174.7188 679.8125,176.8125 Q679.8125,178.9063 680.5,179.9766 Q681.1875,181.0469 682.5313,181.0469 Q683.1563,181.0469 683.75,180.7734 Q684.3438,180.5 684.9688,179.9219 L684.9688,182.6406 Z "/><text fill="#000000" font-family="sans-serif" font-size="12" lengthAdjust="spacingAndGlyphs" textLength="27" x="696" y="181.1543">Item</text><line style="stroke: #A80036; stroke-width: 1.5;" x1="668" x2="725" y1="193" y2="193"/><line style="stroke: #A80036; stroke-width: 1.5;" x1="668" x2="725" y1="201" y2="201"/><!--MD5=[eb0e8f8ddfdc21c3fdb48447501fec67]
class Review--><rect fill="#FEFECE" filter="url(#fwm5tvsw057bd)" height="48" id="Review" style="stroke: #A80036; stroke-width: 1.5;" width="74" x="665.5" y="53"/><ellipse cx="680.5" cy="69" fill="#ADD1B2" rx="11" ry="11" style="stroke: #A80036; stroke-width: 1.0;"/><path d="M683.4688,74.6406 Q682.8906,74.9375 682.25,75.0859 Q681.6094,75.2344 680.9063,75.2344 Q678.4063,75.2344 677.0859,73.5859 Q675.7656,71.9375 675.7656,68.8125 Q675.7656,65.6875 677.0859,64.0313 Q678.4063,62.375 680.9063,62.375 Q681.6094,62.375 682.2578,62.5313 Q682.9063,62.6875 683.4688,62.9844 L683.4688,65.7031 Q682.8438,65.125 682.25,64.8516 Q681.6563,64.5781 681.0313,64.5781 Q679.6875,64.5781 679,65.6484 Q678.3125,66.7188 678.3125,68.8125 Q678.3125,70.9063 679,71.9766 Q679.6875,73.0469 681.0313,73.0469 Q681.6563,73.0469 682.25,72.7734 Q682.8438,72.5 683.4688,71.9219 L683.4688,74.6406 Z "/><text fill="#000000" font-family="sans-serif" font-size="12" lengthAdjust="spacingAndGlyphs" textLength="42" x="694.5" y="73.1543">Review</text><line style="stroke: #A80036; stroke-width: 1.5;" x1="666.5" x2="738.5" y1="85" y2="85"/><line style="stroke: #A80036; stroke-width: 1.5;" x1="666.5" x2="738.5" y1="93" y2="93"/><path d="M6,57 L6,97.2656 L501,97.2656 L501,67 L491,57 L6,57 " fill="#FBFB77" filter="url(#fwm5tvsw057bd)" style="stroke: #A80036; stroke-width: 1.0;"/><path d="M491,57 L491,67 L501,67 L491,57 " fill="#FBFB77" style="stroke: #A80036; stroke-width: 1.0;"/><text fill="#000000" font-family="sans-serif" font-size="13" lengthAdjust="spacingAndGlyphs" textLength="95" x="12" y="74.0669">context Review</text><text fill="#000000" font-family="sans-serif" font-size="13" lengthAdjust="spacingAndGlyphs" textLength="474" x="12" y="89.1997">self.Author.OrderItem -&gt; select(i : Item | i.Id = selft.Item.Id) -&gt; notEmpty()</text><!--MD5=[14bd1ed5ae7636e0355e27f5c629b99e]
link GMN42291 to Review--><path d="M300.0592,56.9383 C372.5827,28.6341 516.1259,-15.5052 631,23 C648.8464,28.982 665.7958,41.373 678.7091,52.778 " fill="none" id="GMN42291-Review" style="stroke: #A80036; stroke-width: 1.0; stroke-dasharray: 7.0,7.0;"/><!--MD5=[09923bad1c37bae014c6deefac763f28]
link Review to User--><path d="M678.4871,101.2373 C660.8651,119.024 637.0359,143.0759 619.4327,160.8436 " fill="none" id="Review-User" style="stroke: #A80036; stroke-width: 1.0;"/><text fill="#000000" font-family="sans-serif" font-size="13" lengthAdjust="spacingAndGlyphs" textLength="7" x="664.7808" y="121.0563">*</text><text fill="#000000" font-family="sans-serif" font-size="13" lengthAdjust="spacingAndGlyphs" textLength="8" x="616.5405" y="149.8156">1</text><!--MD5=[2cc51b62c14bcd4f67ddd6317716a2ab]
link Review to Item--><path d="M701.1535,101.2373 C700.1653,119.024 698.8291,143.0759 697.842,160.8436 " fill="none" id="Review-Item" style="stroke: #A80036; stroke-width: 1.0;"/><text fill="#000000" font-family="sans-serif" font-size="13" lengthAdjust="spacingAndGlyphs" textLength="7" x="692.9722" y="121.0563">*</text><text fill="#000000" font-family="sans-serif" font-size="13" lengthAdjust="spacingAndGlyphs" textLength="8" x="689.1609" y="149.8156">1</text><!--MD5=[0848afe6bee51f22f9599504e4094ac5]
link OrderItem to User--><path d="M586.193,101.2373 C588.1693,119.024 590.8418,143.0759 592.816,160.8436 " fill="none" id="OrderItem-User" style="stroke: #A80036; stroke-width: 1.0;"/><text fill="#000000" font-family="sans-serif" font-size="13" lengthAdjust="spacingAndGlyphs" textLength="7" x="578.9963" y="121.0563">*</text><text fill="#000000" font-family="sans-serif" font-size="13" lengthAdjust="spacingAndGlyphs" textLength="8" x="583.1032" y="149.8156">1</text><!--MD5=[1b70f7cb3d51b61a6eca51f29f389d13]
link OrderItem to Item--><path d="M608.8594,101.2373 C627.4696,119.024 652.635,143.0759 671.2252,160.8436 " fill="none" id="OrderItem-Item" style="stroke: #A80036; stroke-width: 1.0;"/><text fill="#000000" font-family="sans-serif" font-size="13" lengthAdjust="spacingAndGlyphs" textLength="7" x="607.1876" y="121.0563">*</text><text fill="#000000" font-family="sans-serif" font-size="13" lengthAdjust="spacingAndGlyphs" textLength="8" x="655.7235" y="149.8156">1</text><!--MD5=[8d6e155d568d8eaa0bb8fd1ed243675b]
@startuml
class OrderItem{}

class User{}

class Item{}

class Review{}
note left: context Review\nself.Author.OrderItem -> select(i : Item | i.Id = selft.Item.Id) -> notEmpty()

Review "*" - - "1" User
Review "*" - - "1" Item
OrderItem "*" - - "1" User
OrderItem "*" - - "1" Item
@enduml

PlantUML version 1.2019.12(Sun Nov 03 10:24:54 UTC 2019)
(GPL source distribution)
Java Runtime: OpenJDK Runtime Environment
JVM: OpenJDK 64-Bit Server VM
Java Version: 1.8.0_232-heroku-b09
Operating System: Linux
Default Encoding: UTF-8
Language: en
Country: US
--></g></svg>