<?xml version="1.0" encoding="UTF-8" standalone="no"?><svg xmlns="http://www.w3.org/2000/svg" xmlns:xlink="http://www.w3.org/1999/xlink" contentScriptType="application/ecmascript" contentStyleType="text/css" height="607px" preserveAspectRatio="none" style="width:242px;height:607px;" version="1.1" viewBox="0 0 242 607" width="242px" zoomAndPan="magnify"><defs><filter height="300%" id="fl92yil8pnnr0" width="300%" x="-1" y="-1"><feGaussianBlur result="blurOut" stdDeviation="2.0"/><feColorMatrix in="blurOut" result="blurOut2" type="matrix" values="0 0 0 0 0 0 0 0 0 0 0 0 0 0 0 0 0 0 .4 0"/><feOffset dx="4.0" dy="4.0" in="blurOut2" result="blurOut3"/><feBlend in="SourceGraphic" in2="blurOut3" mode="normal"/></filter></defs><g><!--MD5=[44a1b4afaef76c16e6c9ec4990ad0c8d]
class Item--><rect fill="#FEFECE" filter="url(#fl92yil8pnnr0)" height="79.5469" id="Item" style="stroke: #A80036; stroke-width: 1.5;" width="91" x="57" y="8"/><ellipse cx="81.9" cy="26.9688" fill="#ADD1B2" rx="11" ry="11" style="stroke: #A80036; stroke-width: 1.0;"/><path d="M84.8688,32.6094 Q84.2906,32.9063 83.65,33.0547 Q83.0094,33.2031 82.3063,33.2031 Q79.8063,33.2031 78.4859,31.5547 Q77.1656,29.9063 77.1656,26.7813 Q77.1656,23.6563 78.4859,22 Q79.8063,20.3438 82.3063,20.3438 Q83.0094,20.3438 83.6578,20.5 Q84.3063,20.6563 84.8688,20.9531 L84.8688,23.6719 Q84.2438,23.0938 83.65,22.8203 Q83.0563,22.5469 82.4313,22.5469 Q81.0875,22.5469 80.4,23.6172 Q79.7125,24.6875 79.7125,26.7813 Q79.7125,28.875 80.4,29.9453 Q81.0875,31.0156 82.4313,31.0156 Q83.0563,31.0156 83.65,30.7422 Q84.2438,30.4688 84.8688,29.8906 L84.8688,32.6094 Z "/><text fill="#000000" font-family="sans-serif" font-size="12" font-style="italic" lengthAdjust="spacingAndGlyphs" textLength="41" x="96.1" y="24.1387">«Item»</text><text fill="#000000" font-family="sans-serif" font-size="12" lengthAdjust="spacingAndGlyphs" textLength="27" x="103.1" y="38.1074">Item</text><line style="stroke: #A80036; stroke-width: 1.5;" x1="58" x2="147" y1="45.9375" y2="45.9375"/><text fill="#000000" font-family="sans-serif" font-size="11" lengthAdjust="spacingAndGlyphs" textLength="57" x="63" y="60.1479">ID : String</text><text fill="#000000" font-family="sans-serif" font-size="11" lengthAdjust="spacingAndGlyphs" textLength="79" x="63" y="72.9526">Name : String</text><line style="stroke: #A80036; stroke-width: 1.5;" x1="58" x2="147" y1="79.5469" y2="79.5469"/><!--MD5=[0b83492021a2ada4b97aa2318f99f432]
class Rate--><rect fill="#FEFECE" filter="url(#fl92yil8pnnr0)" height="66.7422" id="Rate" style="stroke: #A80036; stroke-width: 1.5;" width="71" x="67" y="148"/><ellipse cx="82" cy="166.9688" fill="#ADD1B2" rx="11" ry="11" style="stroke: #A80036; stroke-width: 1.0;"/><path d="M84.9688,172.6094 Q84.3906,172.9063 83.75,173.0547 Q83.1094,173.2031 82.4063,173.2031 Q79.9063,173.2031 78.5859,171.5547 Q77.2656,169.9063 77.2656,166.7813 Q77.2656,163.6563 78.5859,162 Q79.9063,160.3438 82.4063,160.3438 Q83.1094,160.3438 83.7578,160.5 Q84.4063,160.6563 84.9688,160.9531 L84.9688,163.6719 Q84.3438,163.0938 83.75,162.8203 Q83.1563,162.5469 82.5313,162.5469 Q81.1875,162.5469 80.5,163.6172 Q79.8125,164.6875 79.8125,166.7813 Q79.8125,168.875 80.5,169.9453 Q81.1875,171.0156 82.5313,171.0156 Q83.1563,171.0156 83.75,170.7422 Q84.3438,170.4688 84.9688,169.8906 L84.9688,172.6094 Z "/><text fill="#000000" font-family="sans-serif" font-size="12" font-style="italic" lengthAdjust="spacingAndGlyphs" textLength="43" x="94" y="164.1387">«Rate»</text><text fill="#000000" font-family="sans-serif" font-size="12" lengthAdjust="spacingAndGlyphs" textLength="29" x="101" y="178.1074">Rate</text><line style="stroke: #A80036; stroke-width: 1.5;" x1="68" x2="137" y1="185.9375" y2="185.9375"/><text fill="#000000" font-family="sans-serif" font-size="11" lengthAdjust="spacingAndGlyphs" textLength="57" x="73" y="200.1479">ID : String</text><line style="stroke: #A80036; stroke-width: 1.5;" x1="68" x2="137" y1="206.7422" y2="206.7422"/><!--MD5=[3fd616f346a44cd59a91eb10b19e157c]
class User--><rect fill="#FEFECE" filter="url(#fl92yil8pnnr0)" height="66.7422" id="User" style="stroke: #A80036; stroke-width: 1.5;" width="71" x="6" y="281.5"/><ellipse cx="21" cy="300.4688" fill="#ADD1B2" rx="11" ry="11" style="stroke: #A80036; stroke-width: 1.0;"/><path d="M23.9688,306.1094 Q23.3906,306.4063 22.75,306.5547 Q22.1094,306.7031 21.4063,306.7031 Q18.9063,306.7031 17.5859,305.0547 Q16.2656,303.4063 16.2656,300.2813 Q16.2656,297.1563 17.5859,295.5 Q18.9063,293.8438 21.4063,293.8438 Q22.1094,293.8438 22.7578,294 Q23.4063,294.1563 23.9688,294.4531 L23.9688,297.1719 Q23.3438,296.5938 22.75,296.3203 Q22.1563,296.0469 21.5313,296.0469 Q20.1875,296.0469 19.5,297.1172 Q18.8125,298.1875 18.8125,300.2813 Q18.8125,302.375 19.5,303.4453 Q20.1875,304.5156 21.5313,304.5156 Q22.1563,304.5156 22.75,304.2422 Q23.3438,303.9688 23.9688,303.3906 L23.9688,306.1094 Z "/><text fill="#000000" font-family="sans-serif" font-size="12" font-style="italic" lengthAdjust="spacingAndGlyphs" textLength="43" x="33" y="297.6387">«User»</text><text fill="#000000" font-family="sans-serif" font-size="12" lengthAdjust="spacingAndGlyphs" textLength="29" x="40" y="311.6074">User</text><line style="stroke: #A80036; stroke-width: 1.5;" x1="7" x2="76" y1="319.4375" y2="319.4375"/><text fill="#000000" font-family="sans-serif" font-size="11" lengthAdjust="spacingAndGlyphs" textLength="57" x="12" y="333.6479">ID : String</text><line style="stroke: #A80036; stroke-width: 1.5;" x1="7" x2="76" y1="340.2422" y2="340.2422"/><!--MD5=[eb0e8f8ddfdc21c3fdb48447501fec67]
class Review--><rect fill="#FEFECE" filter="url(#fl92yil8pnnr0)" height="79.5469" id="Review" style="stroke: #A80036; stroke-width: 1.5;" width="102" x="112.5" y="275"/><ellipse cx="135.6" cy="293.9688" fill="#ADD1B2" rx="11" ry="11" style="stroke: #A80036; stroke-width: 1.0;"/><path d="M138.5688,299.6094 Q137.9906,299.9063 137.35,300.0547 Q136.7094,300.2031 136.0063,300.2031 Q133.5063,300.2031 132.1859,298.5547 Q130.8656,296.9063 130.8656,293.7813 Q130.8656,290.6563 132.1859,289 Q133.5063,287.3438 136.0063,287.3438 Q136.7094,287.3438 137.3578,287.5 Q138.0063,287.6563 138.5688,287.9531 L138.5688,290.6719 Q137.9438,290.0938 137.35,289.8203 Q136.7563,289.5469 136.1313,289.5469 Q134.7875,289.5469 134.1,290.6172 Q133.4125,291.6875 133.4125,293.7813 Q133.4125,295.875 134.1,296.9453 Q134.7875,298.0156 136.1313,298.0156 Q136.7563,298.0156 137.35,297.7422 Q137.9438,297.4688 138.5688,296.8906 L138.5688,299.6094 Z "/><text fill="#000000" font-family="sans-serif" font-size="12" font-style="italic" lengthAdjust="spacingAndGlyphs" textLength="56" x="149.4" y="291.1387">«Review»</text><text fill="#000000" font-family="sans-serif" font-size="12" lengthAdjust="spacingAndGlyphs" textLength="42" x="156.4" y="305.1074">Review</text><line style="stroke: #A80036; stroke-width: 1.5;" x1="113.5" x2="213.5" y1="312.9375" y2="312.9375"/><text fill="#000000" font-family="sans-serif" font-size="11" lengthAdjust="spacingAndGlyphs" textLength="57" x="118.5" y="327.1479">ID : String</text><text fill="#000000" font-family="sans-serif" font-size="11" lengthAdjust="spacingAndGlyphs" textLength="90" x="118.5" y="339.9526">Content : String</text><line style="stroke: #A80036; stroke-width: 1.5;" x1="113.5" x2="213.5" y1="346.5469" y2="346.5469"/><!--MD5=[ef1ec319197d4459a8bfc4daff0eaeb5]
class ApprovalProcess--><rect fill="#FEFECE" filter="url(#fl92yil8pnnr0)" height="60.8047" id="ApprovalProcess" style="stroke: #A80036; stroke-width: 1.5;" width="136" x="95.5" y="415"/><ellipse cx="110.5" cy="431" fill="#ADD1B2" rx="11" ry="11" style="stroke: #A80036; stroke-width: 1.0;"/><path d="M113.4688,436.6406 Q112.8906,436.9375 112.25,437.0859 Q111.6094,437.2344 110.9063,437.2344 Q108.4063,437.2344 107.0859,435.5859 Q105.7656,433.9375 105.7656,430.8125 Q105.7656,427.6875 107.0859,426.0313 Q108.4063,424.375 110.9063,424.375 Q111.6094,424.375 112.2578,424.5313 Q112.9063,424.6875 113.4688,424.9844 L113.4688,427.7031 Q112.8438,427.125 112.25,426.8516 Q111.6563,426.5781 111.0313,426.5781 Q109.6875,426.5781 109,427.6484 Q108.3125,428.7188 108.3125,430.8125 Q108.3125,432.9063 109,433.9766 Q109.6875,435.0469 111.0313,435.0469 Q111.6563,435.0469 112.25,434.7734 Q112.8438,434.5 113.4688,433.9219 L113.4688,436.6406 Z "/><text fill="#000000" font-family="sans-serif" font-size="12" lengthAdjust="spacingAndGlyphs" textLength="104" x="124.5" y="435.1543">ApprovalProcess</text><line style="stroke: #A80036; stroke-width: 1.5;" x1="96.5" x2="230.5" y1="447" y2="447"/><text fill="#000000" font-family="sans-serif" font-size="11" lengthAdjust="spacingAndGlyphs" textLength="57" x="101.5" y="461.2104">ID : String</text><line style="stroke: #A80036; stroke-width: 1.5;" x1="96.5" x2="230.5" y1="467.8047" y2="467.8047"/><!--MD5=[cfb3fb30c5e2969164b5fa6b5a110a13]
class ApprovalSteps--><rect fill="#FEFECE" filter="url(#fl92yil8pnnr0)" height="60.8047" id="ApprovalSteps" style="stroke: #A80036; stroke-width: 1.5;" width="122" x="102.5" y="536"/><ellipse cx="117.5" cy="552" fill="#ADD1B2" rx="11" ry="11" style="stroke: #A80036; stroke-width: 1.0;"/><path d="M120.4688,557.6406 Q119.8906,557.9375 119.25,558.0859 Q118.6094,558.2344 117.9063,558.2344 Q115.4063,558.2344 114.0859,556.5859 Q112.7656,554.9375 112.7656,551.8125 Q112.7656,548.6875 114.0859,547.0313 Q115.4063,545.375 117.9063,545.375 Q118.6094,545.375 119.2578,545.5313 Q119.9063,545.6875 120.4688,545.9844 L120.4688,548.7031 Q119.8438,548.125 119.25,547.8516 Q118.6563,547.5781 118.0313,547.5781 Q116.6875,547.5781 116,548.6484 Q115.3125,549.7188 115.3125,551.8125 Q115.3125,553.9063 116,554.9766 Q116.6875,556.0469 118.0313,556.0469 Q118.6563,556.0469 119.25,555.7734 Q119.8438,555.5 120.4688,554.9219 L120.4688,557.6406 Z "/><text fill="#000000" font-family="sans-serif" font-size="12" lengthAdjust="spacingAndGlyphs" textLength="90" x="131.5" y="556.1543">ApprovalSteps</text><line style="stroke: #A80036; stroke-width: 1.5;" x1="103.5" x2="223.5" y1="568" y2="568"/><text fill="#000000" font-family="sans-serif" font-size="11" lengthAdjust="spacingAndGlyphs" textLength="57" x="108.5" y="582.2104">ID : String</text><line style="stroke: #A80036; stroke-width: 1.5;" x1="103.5" x2="223.5" y1="588.8047" y2="588.8047"/><!--MD5=[2aececb1226065e82c9a0dbce4e8fcf9]
reverse link Item to Rate--><path d="M102.5,101.4441 C102.5,117.0819 102.5,133.7351 102.5,147.78 " fill="none" id="Item&lt;-Rate" style="stroke: #A80036; stroke-width: 1.0;"/><polygon fill="#A80036" points="102.5,88.0544,98.5,94.0544,102.5,100.0544,106.5,94.0544,102.5,88.0544" style="stroke: #A80036; stroke-width: 1.0;"/><text fill="#000000" font-family="sans-serif" font-size="13" lengthAdjust="spacingAndGlyphs" textLength="8" x="93.8625" y="107.747">1</text><text fill="#000000" font-family="sans-serif" font-size="13" lengthAdjust="spacingAndGlyphs" textLength="7" x="94.8328" y="137.0266">*</text><!--MD5=[2c39ece8b939867e074150a3ea8641cf]
reverse link Rate to Review--><path d="M123.35,227.1307 C130.4009,242.5618 138.2189,259.6718 145.0687,274.6626 " fill="none" id="Rate&lt;-Review" style="stroke: #A80036; stroke-width: 1.0;"/><polygon fill="#A80036" points="117.8929,215.1877,116.7483,222.3074,122.8801,226.1023,124.0247,218.9826,117.8929,215.1877" style="stroke: #A80036; stroke-width: 1.0;"/><text fill="#000000" font-family="sans-serif" font-size="13" lengthAdjust="spacingAndGlyphs" textLength="8" x="111.9935" y="234.8846">1</text><text fill="#000000" font-family="sans-serif" font-size="13" lengthAdjust="spacingAndGlyphs" textLength="8" x="133.3535" y="263.8549">1</text><!--MD5=[a3651ad847046aa6edbc8c7a08304f59]
reverse link Rate to User--><path d="M81.6769,227.0719 C73.55,244.8578 64.4005,264.8816 56.888,281.3231 " fill="none" id="Rate&lt;-User" style="stroke: #A80036; stroke-width: 1.0;"/><polygon fill="#FFFFFF" points="87.1071,215.1877,80.9753,218.9826,82.1199,226.1023,88.2517,222.3074,87.1071,215.1877" style="stroke: #A80036; stroke-width: 1.0;"/><text fill="#000000" font-family="sans-serif" font-size="13" lengthAdjust="spacingAndGlyphs" textLength="7" x="76.6237" y="234.8846">*</text><text fill="#000000" font-family="sans-serif" font-size="13" lengthAdjust="spacingAndGlyphs" textLength="8" x="51.13" y="270.3217">1</text><!--MD5=[13fb3c08d04474531261c86a5cae5a91]
reverse link Review to ApprovalProcess--><path d="M163.5,368.6781 C163.5,384.3722 163.5,400.989 163.5,414.7386 " fill="none" id="Review&lt;-ApprovalProcess" style="stroke: #A80036; stroke-width: 1.0;"/><polygon fill="#FFFFFF" points="163.5,355.2191,159.5,361.2191,163.5,367.2191,167.5,361.2191,163.5,355.2191" style="stroke: #A80036; stroke-width: 1.0;"/><text fill="#000000" font-family="sans-serif" font-size="13" lengthAdjust="spacingAndGlyphs" textLength="8" x="154.8875" y="374.6378">1</text><text fill="#000000" font-family="sans-serif" font-size="13" lengthAdjust="spacingAndGlyphs" textLength="8" x="154.675" y="403.9479">1</text><!--MD5=[eb61145ce42d19664907a0ab95d546df]
reverse link ApprovalProcess to ApprovalSteps--><path d="M163.5,489.1434 C163.5,504.663 163.5,521.7908 163.5,535.9764 " fill="none" id="ApprovalProcess&lt;-ApprovalSteps" style="stroke: #A80036; stroke-width: 1.0;"/><polygon fill="#FFFFFF" points="163.5,476.0334,159.5,482.0334,163.5,488.0334,167.5,482.0334,163.5,476.0334" style="stroke: #A80036; stroke-width: 1.0;"/><text fill="#000000" font-family="sans-serif" font-size="13" lengthAdjust="spacingAndGlyphs" textLength="7" x="155.7781" y="495.9785">*</text><text fill="#000000" font-family="sans-serif" font-size="13" lengthAdjust="spacingAndGlyphs" textLength="23" x="137.9844" y="524.7615">1..*</text><!--MD5=[a9eecd59b3216474aca4e72b2084fe31]
@startuml
class Item <<Item>> {
    ID : String
    Name : String
}

Item "1" *- - "*" Rate

class User <<User>> {
    ID : String
}

class Rate <<Rate>> {
    ID : String
}

Rate "1" *- - "1" Review 
Rate "*" o- - "1" User

class Review <<Review>> {
    ID : String
    Content : String
}

Review "1" o- - "1" ApprovalProcess 

class ApprovalProcess{
    ID : String
}

class ApprovalSteps{
    ID : String
}

ApprovalProcess "*" o- - "1..*" ApprovalSteps
@enduml

PlantUML version 1.2019.12(Sun Nov 03 10:24:54 UTC 2019)
(GPL source distribution)
Java Runtime: OpenJDK Runtime Environment
JVM: OpenJDK 64-Bit Server VM
Java Version: 1.8.0_232-heroku-b09
Operating System: Linux
Default Encoding: UTF-8
Language: en
Country: US
--></g></svg>