<?xml version="1.0" encoding="UTF-8" standalone="no"?><svg xmlns="http://www.w3.org/2000/svg" xmlns:xlink="http://www.w3.org/1999/xlink" contentScriptType="application/ecmascript" contentStyleType="text/css" height="392px" preserveAspectRatio="none" style="width:249px;height:392px;" version="1.1" viewBox="0 0 249 392" width="249px" zoomAndPan="magnify"><defs><filter height="300%" id="fyul9o2a0os99" width="300%" x="-1" y="-1"><feGaussianBlur result="blurOut" stdDeviation="2.0"/><feColorMatrix in="blurOut" result="blurOut2" type="matrix" values="0 0 0 0 0 0 0 0 0 0 0 0 0 0 0 0 0 0 .4 0"/><feOffset dx="4.0" dy="4.0" in="blurOut2" result="blurOut3"/><feBlend in="SourceGraphic" in2="blurOut3" mode="normal"/></filter></defs><g><!--MD5=[44a1b4afaef76c16e6c9ec4990ad0c8d]
class Item--><rect codeLine="1" fill="#FEFECE" filter="url(#fyul9o2a0os99)" height="92.3516" id="Item" style="stroke:#A80036;stroke-width:1.5;" width="91" x="73" y="7"/><ellipse cx="97.9" cy="25.9688" fill="#ADD1B2" rx="11" ry="11" style="stroke:#A80036;stroke-width:1.0;"/><path d="M100.8688,31.6094 Q100.2906,31.9063 99.65,32.0469 Q99.0094,32.2031 98.3063,32.2031 Q95.8063,32.2031 94.4781,30.5625 Q93.1656,28.9063 93.1656,25.7813 Q93.1656,22.6563 94.4781,21 Q95.8063,19.3438 98.3063,19.3438 Q99.0094,19.3438 99.65,19.5 Q100.3063,19.6563 100.8688,19.9531 L100.8688,22.6719 Q100.2438,22.0938 99.65,21.8281 Q99.0563,21.5469 98.4313,21.5469 Q97.0875,21.5469 96.4,22.625 Q95.7125,23.6875 95.7125,25.7813 Q95.7125,27.875 96.4,28.9531 Q97.0875,30.0156 98.4313,30.0156 Q99.0563,30.0156 99.65,29.75 Q100.2438,29.4688 100.8688,28.8906 L100.8688,31.6094 Z " fill="#000000"/><text fill="#000000" font-family="sans-serif" font-size="12" font-style="italic" lengthAdjust="spacingAndGlyphs" textLength="41" x="112.1" y="23.1387">«Item»</text><text fill="#000000" font-family="sans-serif" font-size="12" lengthAdjust="spacingAndGlyphs" textLength="27" x="119.1" y="37.1074">Item</text><line style="stroke:#A80036;stroke-width:1.5;" x1="74" x2="163" y1="44.9375" y2="44.9375"/><text fill="#000000" font-family="sans-serif" font-size="11" lengthAdjust="spacingAndGlyphs" textLength="57" x="79" y="59.1479">ID : String</text><text fill="#000000" font-family="sans-serif" font-size="11" lengthAdjust="spacingAndGlyphs" textLength="79" x="79" y="71.9526">Name : String</text><text fill="#000000" font-family="sans-serif" font-size="11" lengthAdjust="spacingAndGlyphs" textLength="67" x="79" y="84.7573">Price : Float</text><line style="stroke:#A80036;stroke-width:1.5;" x1="74" x2="163" y1="91.3516" y2="91.3516"/><!--MD5=[0b83492021a2ada4b97aa2318f99f432]
class Rate--><rect codeLine="16" fill="#FEFECE" filter="url(#fyul9o2a0os99)" height="79.5469" id="Rate" style="stroke:#A80036;stroke-width:1.5;" width="82" x="77.5" y="159"/><ellipse cx="97.45" cy="177.9688" fill="#ADD1B2" rx="11" ry="11" style="stroke:#A80036;stroke-width:1.0;"/><path d="M100.4188,183.6094 Q99.8406,183.9063 99.2,184.0469 Q98.5594,184.2031 97.8563,184.2031 Q95.3563,184.2031 94.0281,182.5625 Q92.7156,180.9063 92.7156,177.7813 Q92.7156,174.6563 94.0281,173 Q95.3563,171.3438 97.8563,171.3438 Q98.5594,171.3438 99.2,171.5 Q99.8563,171.6563 100.4188,171.9531 L100.4188,174.6719 Q99.7938,174.0938 99.2,173.8281 Q98.6063,173.5469 97.9813,173.5469 Q96.6375,173.5469 95.95,174.625 Q95.2625,175.6875 95.2625,177.7813 Q95.2625,179.875 95.95,180.9531 Q96.6375,182.0156 97.9813,182.0156 Q98.6063,182.0156 99.2,181.75 Q99.7938,181.4688 100.4188,180.8906 L100.4188,183.6094 Z " fill="#000000"/><text fill="#000000" font-family="sans-serif" font-size="12" font-style="italic" lengthAdjust="spacingAndGlyphs" textLength="43" x="110.55" y="175.1387">«Rate»</text><text fill="#000000" font-family="sans-serif" font-size="12" lengthAdjust="spacingAndGlyphs" textLength="29" x="117.55" y="189.1074">Rate</text><line style="stroke:#A80036;stroke-width:1.5;" x1="78.5" x2="158.5" y1="196.9375" y2="196.9375"/><text fill="#000000" font-family="sans-serif" font-size="11" lengthAdjust="spacingAndGlyphs" textLength="57" x="83.5" y="211.1479">ID : String</text><text fill="#000000" font-family="sans-serif" font-size="11" lengthAdjust="spacingAndGlyphs" textLength="70" x="83.5" y="223.9526">Value : Float</text><line style="stroke:#A80036;stroke-width:1.5;" x1="78.5" x2="158.5" y1="230.5469" y2="230.5469"/><!--MD5=[3fd616f346a44cd59a91eb10b19e157c]
class User--><rect codeLine="10" fill="#FEFECE" filter="url(#fyul9o2a0os99)" height="79.5469" id="User" style="stroke:#A80036;stroke-width:1.5;" width="91" x="7" y="299"/><ellipse cx="31" cy="317.9688" fill="#ADD1B2" rx="11" ry="11" style="stroke:#A80036;stroke-width:1.0;"/><path d="M33.9688,323.6094 Q33.3906,323.9063 32.75,324.0469 Q32.1094,324.2031 31.4063,324.2031 Q28.9063,324.2031 27.5781,322.5625 Q26.2656,320.9063 26.2656,317.7813 Q26.2656,314.6563 27.5781,313 Q28.9063,311.3438 31.4063,311.3438 Q32.1094,311.3438 32.75,311.5 Q33.4063,311.6563 33.9688,311.9531 L33.9688,314.6719 Q33.3438,314.0938 32.75,313.8281 Q32.1563,313.5469 31.5313,313.5469 Q30.1875,313.5469 29.5,314.625 Q28.8125,315.6875 28.8125,317.7813 Q28.8125,319.875 29.5,320.9531 Q30.1875,322.0156 31.5313,322.0156 Q32.1563,322.0156 32.75,321.75 Q33.3438,321.4688 33.9688,320.8906 L33.9688,323.6094 Z " fill="#000000"/><text fill="#000000" font-family="sans-serif" font-size="12" font-style="italic" lengthAdjust="spacingAndGlyphs" textLength="43" x="45" y="315.1387">«User»</text><text fill="#000000" font-family="sans-serif" font-size="12" lengthAdjust="spacingAndGlyphs" textLength="29" x="52" y="329.1074">User</text><line style="stroke:#A80036;stroke-width:1.5;" x1="8" x2="97" y1="336.9375" y2="336.9375"/><text fill="#000000" font-family="sans-serif" font-size="11" lengthAdjust="spacingAndGlyphs" textLength="57" x="13" y="351.1479">ID : String</text><text fill="#000000" font-family="sans-serif" font-size="11" lengthAdjust="spacingAndGlyphs" textLength="79" x="13" y="363.9526">Name : String</text><line style="stroke:#A80036;stroke-width:1.5;" x1="8" x2="97" y1="370.5469" y2="370.5469"/><!--MD5=[eb0e8f8ddfdc21c3fdb48447501fec67]
class Review--><rect codeLine="26" fill="#FEFECE" filter="url(#fyul9o2a0os99)" height="79.5469" id="Review" style="stroke:#A80036;stroke-width:1.5;" width="102" x="133.5" y="299"/><ellipse cx="156.6" cy="317.9688" fill="#ADD1B2" rx="11" ry="11" style="stroke:#A80036;stroke-width:1.0;"/><path d="M159.5688,323.6094 Q158.9906,323.9063 158.35,324.0469 Q157.7094,324.2031 157.0063,324.2031 Q154.5063,324.2031 153.1781,322.5625 Q151.8656,320.9063 151.8656,317.7813 Q151.8656,314.6563 153.1781,313 Q154.5063,311.3438 157.0063,311.3438 Q157.7094,311.3438 158.35,311.5 Q159.0063,311.6563 159.5688,311.9531 L159.5688,314.6719 Q158.9438,314.0938 158.35,313.8281 Q157.7563,313.5469 157.1313,313.5469 Q155.7875,313.5469 155.1,314.625 Q154.4125,315.6875 154.4125,317.7813 Q154.4125,319.875 155.1,320.9531 Q155.7875,322.0156 157.1313,322.0156 Q157.7563,322.0156 158.35,321.75 Q158.9438,321.4688 159.5688,320.8906 L159.5688,323.6094 Z " fill="#000000"/><text fill="#000000" font-family="sans-serif" font-size="12" font-style="italic" lengthAdjust="spacingAndGlyphs" textLength="56" x="170.4" y="315.1387">«Review»</text><text fill="#000000" font-family="sans-serif" font-size="12" lengthAdjust="spacingAndGlyphs" textLength="42" x="177.4" y="329.1074">Review</text><line style="stroke:#A80036;stroke-width:1.5;" x1="134.5" x2="234.5" y1="336.9375" y2="336.9375"/><text fill="#000000" font-family="sans-serif" font-size="11" lengthAdjust="spacingAndGlyphs" textLength="57" x="139.5" y="351.1479">ID : String</text><text fill="#000000" font-family="sans-serif" font-size="11" lengthAdjust="spacingAndGlyphs" textLength="90" x="139.5" y="363.9526">Content : String</text><line style="stroke:#A80036;stroke-width:1.5;" x1="134.5" x2="234.5" y1="370.5469" y2="370.5469"/><!--MD5=[2aececb1226065e82c9a0dbce4e8fcf9]
reverse link Item to Rate--><path codeLine="7" d="M118.5,112.5039 C118.5,127.9769 118.5,144.2881 118.5,158.5247 " fill="none" id="Item-backto-Rate" style="stroke:#A80036;stroke-width:1.0;"/><polygon fill="#A80036" points="118.5,99.1953,114.5,105.1953,118.5,111.1953,122.5,105.1953,118.5,99.1953" style="stroke:#A80036;stroke-width:1.0;"/><text fill="#000000" font-family="sans-serif" font-size="13" lengthAdjust="spacingAndGlyphs" textLength="8" x="109.8875" y="119.4675">1</text><text fill="#000000" font-family="sans-serif" font-size="13" lengthAdjust="spacingAndGlyphs" textLength="7" x="110.9422" y="147.9922">*</text><!--MD5=[2c39ece8b939867e074150a3ea8641cf]
reverse link Rate to Review--><path codeLine="21" d="M142.9757,250.9182 C150.446,266.7641 158.5418,283.9372 165.5843,298.8758 " fill="none" id="Rate-backto-Review" style="stroke:#A80036;stroke-width:1.0;"/><polygon fill="#A80036" points="137.413,239.1184,136.3535,246.2512,142.5301,249.9727,143.5896,242.8398,137.413,239.1184" style="stroke:#A80036;stroke-width:1.0;"/><text fill="#000000" font-family="sans-serif" font-size="13" lengthAdjust="spacingAndGlyphs" textLength="8" x="131.6966" y="258.5217">1</text><text fill="#000000" font-family="sans-serif" font-size="13" lengthAdjust="spacingAndGlyphs" textLength="8" x="153.6457" y="287.8076">1</text><!--MD5=[a3651ad847046aa6edbc8c7a08304f59]
reverse link Rate to User--><path codeLine="23" d="M94.0243,250.9182 C86.554,266.7641 78.4582,283.9372 71.4157,298.8758 " fill="none" id="Rate-backto-User" style="stroke:#A80036;stroke-width:1.0;"/><polygon fill="#FFFFFF" points="99.587,239.1184,93.4104,242.8398,94.4699,249.9727,100.6465,246.2512,99.587,239.1184" style="stroke:#A80036;stroke-width:1.0;"/><text fill="#000000" font-family="sans-serif" font-size="13" lengthAdjust="spacingAndGlyphs" textLength="7" x="89.155" y="258.5217">*</text><text fill="#000000" font-family="sans-serif" font-size="13" lengthAdjust="spacingAndGlyphs" textLength="8" x="65.9793" y="287.8076">1</text><!--MD5=[73f06bad204eb37c71c271497b1b4a48]
@startuml
class Item <<Item>> {
					ID : String
					Name : String
					Price : Float
			}

			Item "1" *- - "*" Rate
	
	
	class User <<User>> {
					ID : String
					Name : String
			}


	class Rate <<Rate>> {
					ID : String
					Value : Float
			}

			Rate "1" *- - "1" Review 
	
	Rate "*" o- - "1" User

	
	class Review <<Review>> {
					ID : String
					Content : String
			}
@enduml

PlantUML version 1.2020.22(Sun Dec 06 09:36:27 UTC 2020)
(GPL source distribution)
Java Runtime: OpenJDK Runtime Environment
JVM: OpenJDK 64-Bit Server VM
Default Encoding: UTF-8
Language: en
Country: US
--></g></svg>