<?xml version="1.0" encoding="UTF-8" standalone="no"?><svg xmlns="http://www.w3.org/2000/svg" xmlns:xlink="http://www.w3.org/1999/xlink" contentScriptType="application/ecmascript" contentStyleType="text/css" height="380px" preserveAspectRatio="none" style="width:245px;height:380px;" version="1.1" viewBox="0 0 245 380" width="245px" zoomAndPan="magnify"><defs><filter height="300%" id="f1cjbwxundg9wg" width="300%" x="-1" y="-1"><feGaussianBlur result="blurOut" stdDeviation="2.0"/><feColorMatrix in="blurOut" result="blurOut2" type="matrix" values="0 0 0 0 0 0 0 0 0 0 0 0 0 0 0 0 0 0 .4 0"/><feOffset dx="4.0" dy="4.0" in="blurOut2" result="blurOut3"/><feBlend in="SourceGraphic" in2="blurOut3" mode="normal"/></filter></defs><g><!--MD5=[0f56501c91b90f32a04b2136e9f4dc84]
class Sandwich--><rect codeLine="1" fill="#FEFECE" filter="url(#f1cjbwxundg9wg)" height="79.5469" id="Sandwich" style="stroke:#A80036;stroke-width:1.5;" width="91" x="73.5" y="7"/><ellipse cx="88.5" cy="25.9688" fill="#ADD1B2" rx="11" ry="11" style="stroke:#A80036;stroke-width:1.0;"/><path d="M91.4688,31.6094 Q90.8906,31.9063 90.25,32.0469 Q89.6094,32.2031 88.9063,32.2031 Q86.4063,32.2031 85.0781,30.5625 Q83.7656,28.9063 83.7656,25.7813 Q83.7656,22.6563 85.0781,21 Q86.4063,19.3438 88.9063,19.3438 Q89.6094,19.3438 90.25,19.5 Q90.9063,19.6563 91.4688,19.9531 L91.4688,22.6719 Q90.8438,22.0938 90.25,21.8281 Q89.6563,21.5469 89.0313,21.5469 Q87.6875,21.5469 87,22.625 Q86.3125,23.6875 86.3125,25.7813 Q86.3125,27.875 87,28.9531 Q87.6875,30.0156 89.0313,30.0156 Q89.6563,30.0156 90.25,29.75 Q90.8438,29.4688 91.4688,28.8906 L91.4688,31.6094 Z " fill="#000000"/><text fill="#000000" font-family="sans-serif" font-size="12" font-style="italic" lengthAdjust="spacingAndGlyphs" textLength="41" x="111.5" y="23.1387">«Item»</text><text fill="#000000" font-family="sans-serif" font-size="12" lengthAdjust="spacingAndGlyphs" textLength="59" x="102.5" y="37.1074">Sandwich</text><line style="stroke:#A80036;stroke-width:1.5;" x1="74.5" x2="163.5" y1="44.9375" y2="44.9375"/><text fill="#000000" font-family="sans-serif" font-size="11" lengthAdjust="spacingAndGlyphs" textLength="57" x="79.5" y="59.1479">ID : String</text><text fill="#000000" font-family="sans-serif" font-size="11" lengthAdjust="spacingAndGlyphs" textLength="79" x="79.5" y="71.9526">Name : String</text><line style="stroke:#A80036;stroke-width:1.5;" x1="74.5" x2="163.5" y1="78.5469" y2="78.5469"/><!--MD5=[0b83492021a2ada4b97aa2318f99f432]
class Rate--><rect codeLine="15" fill="#FEFECE" filter="url(#f1cjbwxundg9wg)" height="79.5469" id="Rate" style="stroke:#A80036;stroke-width:1.5;" width="71" x="144.5" y="147"/><ellipse cx="159.5" cy="165.9688" fill="#ADD1B2" rx="11" ry="11" style="stroke:#A80036;stroke-width:1.0;"/><path d="M162.4688,171.6094 Q161.8906,171.9063 161.25,172.0469 Q160.6094,172.2031 159.9063,172.2031 Q157.4063,172.2031 156.0781,170.5625 Q154.7656,168.9063 154.7656,165.7813 Q154.7656,162.6563 156.0781,161 Q157.4063,159.3438 159.9063,159.3438 Q160.6094,159.3438 161.25,159.5 Q161.9063,159.6563 162.4688,159.9531 L162.4688,162.6719 Q161.8438,162.0938 161.25,161.8281 Q160.6563,161.5469 160.0313,161.5469 Q158.6875,161.5469 158,162.625 Q157.3125,163.6875 157.3125,165.7813 Q157.3125,167.875 158,168.9531 Q158.6875,170.0156 160.0313,170.0156 Q160.6563,170.0156 161.25,169.75 Q161.8438,169.4688 162.4688,168.8906 L162.4688,171.6094 Z " fill="#000000"/><text fill="#000000" font-family="sans-serif" font-size="12" font-style="italic" lengthAdjust="spacingAndGlyphs" textLength="43" x="171.5" y="163.1387">«Rate»</text><text fill="#000000" font-family="sans-serif" font-size="12" lengthAdjust="spacingAndGlyphs" textLength="29" x="178.5" y="177.1074">Rate</text><line style="stroke:#A80036;stroke-width:1.5;" x1="145.5" x2="214.5" y1="184.9375" y2="184.9375"/><text fill="#000000" font-family="sans-serif" font-size="11" lengthAdjust="spacingAndGlyphs" textLength="57" x="150.5" y="199.1479">ID : String</text><text fill="#000000" font-family="sans-serif" font-size="11" lengthAdjust="spacingAndGlyphs" textLength="57" x="150.5" y="211.9526">Value : Int</text><line style="stroke:#A80036;stroke-width:1.5;" x1="145.5" x2="214.5" y1="218.5469" y2="218.5469"/><!--MD5=[042fa140da40c49659127f611bcff931]
class Comment--><rect codeLine="32" fill="#FEFECE" filter="url(#f1cjbwxundg9wg)" height="66.7422" id="Comment" style="stroke:#A80036;stroke-width:1.5;" width="102" x="7" y="153.5"/><ellipse cx="26.95" cy="172.4688" fill="#ADD1B2" rx="11" ry="11" style="stroke:#A80036;stroke-width:1.0;"/><path d="M29.9188,178.1094 Q29.3406,178.4063 28.7,178.5469 Q28.0594,178.7031 27.3563,178.7031 Q24.8563,178.7031 23.5281,177.0625 Q22.2156,175.4063 22.2156,172.2813 Q22.2156,169.1563 23.5281,167.5 Q24.8563,165.8438 27.3563,165.8438 Q28.0594,165.8438 28.7,166 Q29.3563,166.1563 29.9188,166.4531 L29.9188,169.1719 Q29.2938,168.5938 28.7,168.3281 Q28.1063,168.0469 27.4813,168.0469 Q26.1375,168.0469 25.45,169.125 Q24.7625,170.1875 24.7625,172.2813 Q24.7625,174.375 25.45,175.4531 Q26.1375,176.5156 27.4813,176.5156 Q28.1063,176.5156 28.7,176.25 Q29.2938,175.9688 29.9188,175.3906 L29.9188,178.1094 Z " fill="#000000"/><text fill="#000000" font-family="sans-serif" font-size="12" font-style="italic" lengthAdjust="spacingAndGlyphs" textLength="56" x="43.55" y="169.6387">«Review»</text><text fill="#000000" font-family="sans-serif" font-size="12" lengthAdjust="spacingAndGlyphs" textLength="59" x="42.05" y="183.6074">Comment</text><line style="stroke:#A80036;stroke-width:1.5;" x1="8" x2="108" y1="191.4375" y2="191.4375"/><text fill="#000000" font-family="sans-serif" font-size="11" lengthAdjust="spacingAndGlyphs" textLength="90" x="13" y="205.6479">Content : String</text><line style="stroke:#A80036;stroke-width:1.5;" x1="8" x2="108" y1="212.2422" y2="212.2422"/><!--MD5=[3fd616f346a44cd59a91eb10b19e157c]
class User--><rect codeLine="10" fill="#FEFECE" filter="url(#f1cjbwxundg9wg)" height="66.7422" id="User" style="stroke:#A80036;stroke-width:1.5;" width="71" x="22.5" y="293.5"/><ellipse cx="37.5" cy="312.4688" fill="#ADD1B2" rx="11" ry="11" style="stroke:#A80036;stroke-width:1.0;"/><path d="M40.4688,318.1094 Q39.8906,318.4063 39.25,318.5469 Q38.6094,318.7031 37.9063,318.7031 Q35.4063,318.7031 34.0781,317.0625 Q32.7656,315.4063 32.7656,312.2813 Q32.7656,309.1563 34.0781,307.5 Q35.4063,305.8438 37.9063,305.8438 Q38.6094,305.8438 39.25,306 Q39.9063,306.1563 40.4688,306.4531 L40.4688,309.1719 Q39.8438,308.5938 39.25,308.3281 Q38.6563,308.0469 38.0313,308.0469 Q36.6875,308.0469 36,309.125 Q35.3125,310.1875 35.3125,312.2813 Q35.3125,314.375 36,315.4531 Q36.6875,316.5156 38.0313,316.5156 Q38.6563,316.5156 39.25,316.25 Q39.8438,315.9688 40.4688,315.3906 L40.4688,318.1094 Z " fill="#000000"/><text fill="#000000" font-family="sans-serif" font-size="12" font-style="italic" lengthAdjust="spacingAndGlyphs" textLength="43" x="49.5" y="309.6387">«User»</text><text fill="#000000" font-family="sans-serif" font-size="12" lengthAdjust="spacingAndGlyphs" textLength="29" x="56.5" y="323.6074">User</text><line style="stroke:#A80036;stroke-width:1.5;" x1="23.5" x2="92.5" y1="331.4375" y2="331.4375"/><text fill="#000000" font-family="sans-serif" font-size="11" lengthAdjust="spacingAndGlyphs" textLength="57" x="28.5" y="345.6479">ID : String</text><line style="stroke:#A80036;stroke-width:1.5;" x1="23.5" x2="92.5" y1="352.2422" y2="352.2422"/><!--MD5=[eb0e8f8ddfdc21c3fdb48447501fec67]
class Review--><rect codeLine="25" fill="#FEFECE" filter="url(#f1cjbwxundg9wg)" height="79.5469" id="Review" style="stroke:#A80036;stroke-width:1.5;" width="102" x="129" y="287"/><ellipse cx="152.1" cy="305.9688" fill="#ADD1B2" rx="11" ry="11" style="stroke:#A80036;stroke-width:1.0;"/><path d="M155.0688,311.6094 Q154.4906,311.9063 153.85,312.0469 Q153.2094,312.2031 152.5063,312.2031 Q150.0063,312.2031 148.6781,310.5625 Q147.3656,308.9063 147.3656,305.7813 Q147.3656,302.6563 148.6781,301 Q150.0063,299.3438 152.5063,299.3438 Q153.2094,299.3438 153.85,299.5 Q154.5063,299.6563 155.0688,299.9531 L155.0688,302.6719 Q154.4438,302.0938 153.85,301.8281 Q153.2563,301.5469 152.6313,301.5469 Q151.2875,301.5469 150.6,302.625 Q149.9125,303.6875 149.9125,305.7813 Q149.9125,307.875 150.6,308.9531 Q151.2875,310.0156 152.6313,310.0156 Q153.2563,310.0156 153.85,309.75 Q154.4438,309.4688 155.0688,308.8906 L155.0688,311.6094 Z " fill="#000000"/><text fill="#000000" font-family="sans-serif" font-size="12" font-style="italic" lengthAdjust="spacingAndGlyphs" textLength="56" x="165.9" y="303.1387">«Review»</text><text fill="#000000" font-family="sans-serif" font-size="12" lengthAdjust="spacingAndGlyphs" textLength="42" x="172.9" y="317.1074">Review</text><line style="stroke:#A80036;stroke-width:1.5;" x1="130" x2="230" y1="324.9375" y2="324.9375"/><text fill="#000000" font-family="sans-serif" font-size="11" lengthAdjust="spacingAndGlyphs" textLength="57" x="135" y="339.1479">ID : String</text><text fill="#000000" font-family="sans-serif" font-size="11" lengthAdjust="spacingAndGlyphs" textLength="90" x="135" y="351.9526">Content : String</text><line style="stroke:#A80036;stroke-width:1.5;" x1="130" x2="230" y1="358.5469" y2="358.5469"/><!--MD5=[c2eadeaaa5a72af8d781de5648e8d57e]
reverse link Sandwich to Rate--><path codeLine="6" d="M141.8247,99.3846 C148.6724,115.1007 156.0722,132.0837 162.5173,146.8758 " fill="none" id="Sandwich-backto-Rate" style="stroke:#A80036;stroke-width:1.0;"/><polygon fill="#A80036" points="136.4802,87.1184,135.2099,94.2167,141.2736,98.1195,142.5439,91.0211,136.4802,87.1184" style="stroke:#A80036;stroke-width:1.0;"/><text fill="#000000" font-family="sans-serif" font-size="13" lengthAdjust="spacingAndGlyphs" textLength="8" x="130.5444" y="106.5217">1</text><text fill="#000000" font-family="sans-serif" font-size="13" lengthAdjust="spacingAndGlyphs" textLength="7" x="151.9109" y="135.8076">*</text><!--MD5=[10547205813f586f8934c1207d56cea0]
reverse link Sandwich to Comment--><path codeLine="8" d="M96.3102,99.0749 C88.3786,117.2786 79.6915,137.2163 72.5977,153.4971 " fill="none" id="Sandwich-backto-Comment" style="stroke:#A80036;stroke-width:1.0;"/><polygon fill="#A80036" points="101.5198,87.1184,95.4561,91.0211,96.7264,98.1195,102.7901,94.2167,101.5198,87.1184" style="stroke:#A80036;stroke-width:1.0;"/><text fill="#000000" font-family="sans-serif" font-size="13" lengthAdjust="spacingAndGlyphs" textLength="8" x="90.2306" y="106.5217">1</text><text fill="#000000" font-family="sans-serif" font-size="13" lengthAdjust="spacingAndGlyphs" textLength="7" x="67.7826" y="142.53">*</text><!--MD5=[2c39ece8b939867e074150a3ea8641cf]
reverse link Rate to Review--><path codeLine="20" d="M180,240.3197 C180,255.7724 180,272.3766 180,286.8758 " fill="none" id="Rate-backto-Review" style="stroke:#A80036;stroke-width:1.0;"/><polygon fill="#A80036" points="180,227.1184,176,233.1184,180,239.1184,184,233.1184,180,227.1184" style="stroke:#A80036;stroke-width:1.0;"/><text fill="#000000" font-family="sans-serif" font-size="13" lengthAdjust="spacingAndGlyphs" textLength="8" x="171.3875" y="246.5217">1</text><text fill="#000000" font-family="sans-serif" font-size="13" lengthAdjust="spacingAndGlyphs" textLength="8" x="171.3125" y="275.8076">1</text><!--MD5=[a3651ad847046aa6edbc8c7a08304f59]
reverse link Rate to User--><path codeLine="22" d="M136.4351,236.9925 C120.092,255.7469 101.926,276.5931 87.1954,293.4971 " fill="none" id="Rate-backto-User" style="stroke:#A80036;stroke-width:1.0;"/><polygon fill="#FFFFFF" points="145.0397,227.1184,138.0822,229.014,137.156,236.1653,144.1135,234.2698,145.0397,227.1184" style="stroke:#A80036;stroke-width:1.0;"/><text fill="#000000" font-family="sans-serif" font-size="13" lengthAdjust="spacingAndGlyphs" textLength="7" x="132.1505" y="246.5217">*</text><text fill="#000000" font-family="sans-serif" font-size="13" lengthAdjust="spacingAndGlyphs" textLength="8" x="84.1557" y="282.53">1</text><!--MD5=[ccaede06ee77bfde95f2854fcaa72abb]
reverse link Comment to User--><path codeLine="36" d="M58,233.8079 C58,253.2701 58,275.4288 58,293.2549 " fill="none" id="Comment-backto-User" style="stroke:#A80036;stroke-width:1.0;"/><polygon fill="#FFFFFF" points="58,220.5335,54,226.5335,58,232.5335,62,226.5335,58,220.5335" style="stroke:#A80036;stroke-width:1.0;"/><text fill="#000000" font-family="sans-serif" font-size="13" lengthAdjust="spacingAndGlyphs" textLength="7" x="50.3547" y="240.202">*</text><text fill="#000000" font-family="sans-serif" font-size="13" lengthAdjust="spacingAndGlyphs" textLength="7" x="50.3328" y="282.4967">*</text><!--MD5=[602c5dfc805dcbb9dbd0c69ccc266e50]
@startuml
class Sandwich <<Item>> {
					ID : String
					Name : String
			}

			Sandwich "1" *- - "*" Rate
	
			Sandwich "1" *- - "*" Comment
	
	class User <<User>> {
					ID : String
			}


	class Rate <<Rate>> {
					ID : String
					Value : Int
			}

			Rate "1" *- - "1" Review 
	
	Rate "*" o- - "1" User

	
	class Review <<Review>> {
					ID : String
					Content : String
			}

	

	class Comment <<Review>> {
					Content : String
			}
	
	Comment "*" o- - "*" User
@enduml

PlantUML version 1.2020.22(Sun Dec 06 09:36:27 UTC 2020)
(GPL source distribution)
Java Runtime: OpenJDK Runtime Environment
JVM: OpenJDK 64-Bit Server VM
Default Encoding: UTF-8
Language: en
Country: US
--></g></svg>